<svg width="774" height="794" fill="none" xmlns="http://www.w3.org/2000/svg"><path d="M226.466 591.133c-1.588-1.966-3.643-3.463-5.885-4.586-3.364-.562-5.325-3.463-8.034-5.054-7.941-6.831-16.162-13.289-22.888-21.43-4.671-5.335-9.435-10.575-13.639-16.284-2.709-3.556-7.287-2.901-10.65-5.053-1.868-1.123-4.017-1.685-5.979-2.527-4.391-1.872-8.221-4.867-12.518-6.925-5.699-4.025-10.463-8.984-15.321-13.944-1.027-1.123-2.148-2.153-3.176-3.276-2.335-3.743-5.885-6.644-7.66-10.762-.934-4.586 1.121-7.299 5.044-9.265 4.391-2.246 9.342-3.65 12.612-7.674 2.522-2.714-.28-5.24-.187-7.861-.467-4.117-1.401-8.141-1.962-12.259-.467-3.463-1.775-6.925-.654-10.575-.28-1.872-.467-3.65-.747-5.522-2.429-4.585-2.336-9.732-2.055-14.505.467-7.861-2.149-13.944-7.661-19.091-7.38-9.546-13.452-19.84-15.787-31.819-.281-1.497-.654-2.994-.935-4.492-1.494-8.048-1.775-16.096-.186-24.238.467-4.586 1.401-9.078 2.709-13.476.56-2.62 1.401-5.147 2.429-7.58 1.401-3.276 2.242-6.738 4.017-9.827 2.709-3.649 6.632-3.743 10.556-3.181 4.577.655 9.248 1.216 13.826 2.339 3.83.936 6.259.094 7.473-3.93 1.028-3.276 2.71-6.27 4.204-9.359 1.495-2.526 2.709-5.24 4.017-7.861 2.616-4.773 5.419-9.452 8.501-14.037 1.308-1.685 2.523-3.463 3.644-5.335 9.715-14.131 20.739-27.139 32.977-39.118 9.622-8.703 19.151-17.593 29.987-24.799 3.27-2.059 6.259-4.68 9.529-6.645 3.083-1.872 2.616-3.65.374-5.896-5.045-5.147-10.37-9.826-16.909-13.101-.654-.375-1.402-.655-2.056-1.123-6.072-3.744-6.352-9.359-.56-13.476 4.204-2.995 8.968-4.867 13.826-6.738 15.881-5.148 31.856-4.867 48.017-1.779 5.419 1.03 10.837 2.434 16.255 3.837 2.336.655 4.671 1.498 7.007 1.966 5.511 2.433 11.023 1.965 16.628.093 4.951-1.684 9.996-2.994 15.134-4.024 11.677-2.714 23.542-4.398 35.499-5.241.561-.187 1.215-.374 1.775-.28 10.183 1.778 17.283-3.182 23.168-10.762 11.304-9.733 24.289-16.471 37.835-22.18.841-.374 1.681-.655 2.615-.936 6.913-2.152 9.809-.561 12.425 6.832 2.522 14.973 7.847 28.824 16.629 41.27 3.55 4.399 9.061 5.148 13.732 7.581 12.705 5.053 24.756 11.323 36.34 18.623 5.792 3.65 11.397 7.674 17.002 11.604 7.567 5.709 14.854 11.698 21.393 18.53 2.803 2.901 5.792 3.743 9.623 2.62 3.643-1.029 7.006-2.339 10.462-3.743 5.886-2.808 10.463-7.112 13.92-12.634 4.297-6.832 9.155-7.019 14.013-.468 4.764 6.27 7.847 13.289 10.089 20.776 1.588 6.457 2.803 12.914 2.616 19.559 1.214 7.299 1.121 14.599-.094 21.898 0 3.931-.934 7.768-1.868 11.511-1.308 5.147-2.896 10.201-4.951 15.067-1.402 2.995.093 5.615 1.121 8.236 1.868 4.866 3.456 9.826 4.671 14.879.84 3.65 1.494 7.394 2.429 11.043-.187 4.399 2.242 6.645 5.978 8.329 11.211 5.147 21.3 12.166 29.801 21.244 1.588 1.778 3.363 3.462 5.045 5.147 5.044 5.896 9.715 11.979 13.265 18.904.747 2.152 1.775 4.211 2.989 6.176 1.215 2.527 2.71 4.96 2.896 7.768.468 5.334-1.775 8.235-7.006 9.077-7.754 1.123-15.227 2.995-22.14 6.738-5.418 3.276-10.93 6.458-13.733 12.447-.56 1.497-.934 2.995-.841 4.586-.467 4.117-1.494 8.142-2.148 12.259-1.495 6.177-2.616 12.447-4.578 18.53-.934 2.433-1.681 4.866-2.522 7.299-2.055 5.896-4.391 11.698-6.913 17.407-3.083 7.112-6.446 13.944-10.463 20.588-3.55 5.896-7.1 11.698-10.93 17.313-4.951 7.487-10.743 14.225-16.629 21.057-4.203 3.275-5.978 7.486-5.605 12.914.281 4.773-1.494 9.359-2.802 13.944-7.567 18.343-21.3 29.854-39.89 35.937-13.92 2.433-27.372 1.59-39.983-5.335-1.308-.748-2.803-1.31-4.391-1.029-6.166 2.152-11.771 5.521-18.03 7.487-1.588.467-3.083 1.029-4.671 1.59-7.567 2.527-15.134 5.241-22.981 6.832-3.924.749-7.754 1.778-11.677 2.62-6.726 1.404-13.453 2.246-20.272 3.089-2.99.374-6.072-.281-8.968.748-11.117.562-22.234.655-33.351 0-6.259-1.123-12.518-1.029-18.777-1.965-6.726-1.216-13.546-2.527-20.365-3.556-1.869-.187-3.644-.936-5.512-.187-6.446 2.246-12.238 5.896-18.684 7.954-3.643 1.217-7.287 2.434-11.21 2.527-2.709.187-5.419 1.123-8.221.936-8.034-.094-15.601-2.246-23.074-4.96-5.139-2.62-10.37-4.866-14.854-8.61-6.913-5.802-9.996-13.289-10.089-22.179.934-5.709-1.028-9.733-6.353-12.353-2.242-1.217-4.764-2.34-6.072-4.866Z" fill="#27219A"/><path d="M656.006 375.141c-10.089-9.452-21.019-17.687-34.004-23.022-3.27-1.31-2.523-4.585-2.71-7.299 1.215-1.591 3.177-1.872 4.952-2.34 15.32-4.211 29.987-10.107 44.747-15.909 3.176-1.217 6.259-2.714 9.436-4.96-2.429-1.965-4.858-1.31-7.194-1.029-15.974 1.871-31.108 7.299-46.335 11.978-2.616.843-5.139 2.246-8.128 1.311-1.588-5.054-3.176-10.107-4.671-15.161 1.028-2.246 3.27-2.808 5.138-3.743 22.888-10.762 45.402-22.273 67.635-34.346 3.177-1.684 6.073-4.492 10.183-3.743 3.737 10.856 7.567 21.712 11.304 32.567 1.027 3.089 1.962 6.27 2.522 9.452 1.215 6.27-2.616 10.294-6.913 13.757-3.923 3.088-8.688 4.773-13.078 7.112-1.121.655-2.99.936-2.71 2.714.281 1.685 1.775 2.434 3.457 2.527 8.034.749 11.49 6.27 13.919 13.102 1.962 5.802 1.308 11.979 2.616 17.874.28 1.217.28 2.527 1.308 3.369 1.027.843 1.775 2.246 3.55 1.591 1.588-.561 1.868-1.871 1.868-3.369v-9.358c1.028-2.059.28-4.305.841-6.364.467-1.778.187-4.211 2.802-4.866.187 9.733.841 19.372 2.896 28.917-2.242 1.685-4.857.749-7.193.468-18.123-2.152-35.873-6.551-53.716-10.294-.934 0-1.775-.468-2.522-.936ZM202.924 243.188c-11.957 12.353-23.354 25.174-33.07 39.399-2.803 1.591-5.512.187-8.127-.562-20.272-6.27-40.638-12.259-61.096-17.874-4.2042-1.123-8.4081-2.059-12.6119-3.276-1.4947-.468-3.5499-.374-3.9236-2.62 2.2421 0 4.017-.374 5.2315-2.714 3.8301-7.206 7.9406-14.318 12.051-21.337.841-1.404 1.588-2.621.561-4.118 2.242-1.216 3.456.655 4.857 1.591 10.743 7.487 21.673 14.599 32.23 22.273 1.121.842 2.148 1.872 3.643 1.872.747-.468.374-1.123.187-1.685-.934-4.492.747-6.176 5.231-4.96 6.26 1.778 12.425 4.212 18.684 5.896 2.709.749 5.325 1.591 9.062 2.152-2.336-2.433-4.578-3.556-6.82-4.772-18.59-9.827-37.741-18.436-56.798-27.233-1.589-.749-3.644-1.123-4.017-3.369 2.802-.187 3.643-2.621 4.951-4.492 8.968-12.821 19.057-24.8 28.96-36.966 5.325 1.685 7.847 6.551 11.584 10.014 1.214 2.058 2.802 3.649 4.671 5.147.467.374.934.842 1.401 1.403 3.83 3.931 7.1 8.329 11.864 11.231 4.578 4.024 7.754 9.264 11.771 13.85 5.418 6.083 11.117 11.698 16.815 17.594 1.121.936 2.429 1.871 2.709 3.556Z" fill="#C2DBF3"/><path d="M375.749 166.543c-12.238 1.31-24.475 3.182-36.62 5.428-1.681-.468-2.429-1.779-3.083-3.182-6.913-13.944-14.573-27.42-23.354-40.335.28-1.965-.841-3.556-1.589-5.241-5.044-10.762-11.023-20.962-16.254-31.631-.841-1.6845-2.429-3.369-1.402-5.615 8.875-1.6845 17.563-4.0241 26.158-6.6444 2.335.4679 1.868 2.5267 2.148 4.1177 2.429 11.6979 4.017 23.5827 8.314 35.1877 1.121-1.872 1.215-4.773 4.298-3.463 1.868.749 2.896 2.714 5.138 4.118-.561-7.674-1.401-14.693-3.644-21.5244-1.774-5.4279-3.549-10.9493-5.511-16.3772-.561-1.5909-1.495-3.0883-.467-4.8664 5.885.2808 11.584-1.4973 17.376-2.0588 6.539-.5615 13.078-1.5909 19.711-1.6845 3.176-.0936 6.446-.5615 9.622-.8423 1.775 1.9653 1.028 4.3049.841 6.5509-.28 5.3343-1.775 10.575-.841 16.0029.467 7.8608-1.868 15.4408-2.896 23.1148-1.775 13.009-2.616 26.017-2.242 39.118.093 4.025.841 7.487 4.297 9.827Z" fill="#C1DAF3"/><path d="M451.979 138.561c-2.709-7.299-4.951-8.235-12.238-5.521-14.106 5.334-27.091 12.727-38.955 22.179-1.121-.749-1.495-2.059-1.682-3.275-2.429-15.067-7.1-29.666-10.65-44.453-.654-2.714-1.401-5.521-1.401-8.2351 0-2.7139-1.775-.7487-2.522-1.2166-1.402-3.369-1.962-6.6444.934-9.7327 1.681-1.7781.467-4.1177.374-6.1766-.094-4.0241-2.056-8.0482 0-12.0723.934 1.123 1.774 1.8717 3.456 1.9653 12.144.4679 24.382 1.2166 36.433 2.8075 3.831.4679 7.567 1.2166 11.398 1.8717.28.3743.747.8422.653 1.2166-2.242 5.8022 0 11.8851-1.401 17.8745-1.495 6.4577-.841 13.1017-.374 20.4947 2.803-2.152 3.177-4.492 3.737-6.644 2.616-9.359 3.924-18.9042 5.325-28.4498.28-1.6845-.28-3.8369 2.149-4.5856.28 1.0294 0 2.5268 1.401 2.7139 9.062 1.0295 17.563 4.8664 26.624 5.8022 1.215 2.4332-.653 4.1177-1.494 5.9894-5.886 12.8209-11.304 25.8289-17.376 38.5569-1.121 2.901-2.336 6.083-4.391 8.89ZM535.963 217.92c-5.512-3.743-11.024-7.58-16.535-11.323-1.028-1.404-1.028-2.902-.654-4.399 4.577-16.471 9.342-32.941 18.123-47.821 5.138-4.679 7.754-11.043 11.21-16.752 2.242-4.866 5.699-8.89 8.501-13.382.654-.936 1.308-2.246 2.896-1.778 8.128 4.211 15.134 10.013 22.795 14.88 1.681 1.029 3.082 2.62 5.138 2.901.56 2.152-1.308 2.807-2.429 3.93-3.177 3.088-7.287 5.054-9.342 9.265-9.622 6.364-17.656 14.505-26.251 23.302 4.017-1.497 6.353-4.117 8.968-6.083 2.709-2.058 5.419-4.117 7.847-6.551 1.495-1.497 2.803-3.369 5.139-3.743 4.297 2.34 7.473.842 10.556-2.527 2.802-3.088 5.231-6.55 8.314-9.358 1.308-1.217 2.336-2.995 4.578-2.714 2.148 4.773 6.726 7.019 10.369 10.107 2.149 1.872 3.643 5.334 7.474 4.866.186 2.527-2.056 3.276-3.55 4.399-13.172 9.92-26.531 19.559-39.703 29.479-5.512 4.118-10.463 8.89-16.255 12.446-1.215.749-2.055 1.872-2.616 3.182-4.671 2.901-8.594 7.113-14.573 7.674Z" fill="#C2DAF3"/><path d="M125.387 413.23c5.885 5.147 9.622 10.949 8.594 19.465-.56 5.054.374 10.201.654 15.348-10.463 3.462-21.393 4.773-32.136 6.457-13.0787 2.059-26.2507 3.463-39.4228 5.522-4.2038.655-5.5117-.843-6.0722-4.68-2.4289-16.751-4.1104-33.503-3.7367-50.441 0-1.591 0-3.089-.9342-4.492 3.1762-1.872 6.3524-.468 9.4353.093 13.5457 2.246 26.998 4.96 40.7306 6.551 7.66 2.153 15.321 4.118 22.888 6.177Z" fill="#C1DAF3"/><path d="M534.375 621.173c6.352-2.714 12.798-5.334 18.403-9.546 8.968-6.55 15.227-15.254 19.992-25.174 1.775-1.216 2.896-.093 4.017 1.217 4.11 5.989 10.369 9.826 15.788 14.318 9.809 8.048 19.524 16.284 29.707 23.958 1.494 1.123 3.55 2.059 3.737 4.492-2.71.374-4.017 2.714-5.699 4.398-5.045 4.773-9.902 9.546-14.854 14.319-4.017-1.123-5.978-4.586-8.221-7.581-4.39-5.896-9.622-10.855-15.04-16.283.747 3.649 2.522 6.551 3.737 9.639 1.308 3.369.467 4.773-3.176 4.398-4.111-.374-2.336 2.059-1.589 3.276 2.99 4.585 7.194 8.048 11.211 11.791 1.214 1.123 2.896 1.872 2.896 3.931-5.419 4.024-11.024 7.767-16.162 12.166-3.269 2.807-7.753 3.93-10.276 7.674-1.775.28-2.429-1.123-3.083-2.246-9.995-17.314-21.579-33.691-29.987-51.94-.374-.842-.654.562-1.121.094-1.121-.842-1.121-1.778-.28-2.901Z" fill="#C2DAF2"/><path d="M165.557 537.79c6.539 1.029 11.584 4.024 15.227 9.826 2.709 4.305 6.446 7.861 9.716 11.792-.187.748-.467 1.497-1.028 2.059-9.062 8.235-17.096 17.313-24.756 26.765-.841 1.123-1.962 1.965-3.27 2.433-2.148.748-3.456 2.526-4.951 4.117-6.352 6.364-12.705 12.728-19.057 18.998-1.215 1.217-2.242 3.088-4.578 2.62-4.577-6.176-9.061-12.446-13.639-18.623-6.352-8.61-12.331-17.5-17.469-26.859-.654-1.123-1.121-2.246-2.6161-2.339.0934-2.246 2.0551-2.433 3.5501-3.182 19.244-9.078 38.956-17.126 58.013-26.578 1.495-.655 2.989-1.403 4.858-1.029Z" fill="#C1DAF3"/><path d="M471.037 622.39c5.885-2.621 11.77-5.148 17.656-7.768 6.632 7.393 12.144 15.535 18.497 23.115 4.671 5.522 9.248 11.23 14.013 16.658 6.445 9.733 14.012 18.53 21.112 27.795 2.055 2.714 5.232 4.96 5.325 8.984-6.913 2.526-12.798 6.831-19.338 10.013-7.94 3.837-15.974 7.487-24.008 11.137-1.121.468-2.429.655-2.523 2.246-1.961 0-2.055-1.685-2.428-2.901-9.903-28.918-18.217-58.303-28.12-87.127-.373-.562-.467-1.404-.186-2.152ZM350.433 635.023c6.352.094 12.518.936 18.777 1.872-.747 1.685-1.401 3.369-1.028 5.334 2.616 15.161 3.737 30.509 6.726 45.576 1.215 15.067 3.083 30.04 4.298 45.013.187 1.779.747 3.744-.934 5.241-.841-.281-1.775-.936-2.616-.842-16.816.468-33.257-2.62-49.792-4.96-1.495-2.34-.187-4.492.467-6.644.84-2.808 1.775-5.616 2.522-8.517 9.435-24.425 16.535-49.505 19.338-75.615.28-2.34.373-4.68 2.242-6.458Z" fill="#C2DAF3"/><path d="M581.831 558.285c5.606-6.738 11.398-13.383 16.349-20.682 2.148-1.217 3.923-.094 5.605.935 18.964 11.418 39.329 19.934 59.414 28.918 2.71 1.216 6.073 1.591 7.567 4.773-1.681.187-2.148 1.591-2.896 2.807-8.314 13.102-17.189 25.736-26.998 37.808-.841 1.029-2.055 1.778-3.176 2.714-3.643-.468-5.792-3.275-8.221-5.522-3.83-3.462-7.287-7.205-10.93-10.855-1.308-1.31-2.522-2.808-4.484-3.182-4.578-1.965-6.259-6.645-9.342-10.014-7.473-8.235-14.293-17.032-21.766-25.267-.468-.655-.935-1.404-1.122-2.433Z" fill="#C1DAF3"/><path d="M114.176 332.841c-.747 2.527-1.588 5.147-2.335 7.674-1.588 1.123-3.27.655-4.951.281-14.4802-2.995-28.6799-6.832-43.0664-10.201-1.3079-.281-2.8026-.468-3.1763-2.246 1.2145-.281 1.6816-.936 2.0553-2.152 4.8577-17.781 10.2761-35.375 17.6562-52.314 1.7749-1.31 3.2696-.187 4.7643.562 18.5899 8.984 37.3679 17.781 55.9579 26.671 3.27 1.591 6.633 2.714 9.809 4.399 1.308.655 3.083.842 3.456 2.807-1.961 4.586-3.923 9.078-5.791 13.663-.841 2.059-1.962 2.34-3.924 1.872-5.418-1.123-10.93-1.965-16.442-2.995-3.923-.655-7.754-.842-10.743 2.434-2.335 1.029-4.577.28-6.82-.188-6.259-1.216-12.5176-2.339-18.5899-3.462 5.8854 3.369 12.0509 6.27 18.1229 9.452 1.682.936 3.831 1.31 4.017 3.743ZM235.714 172.158c-4.017 1.965-8.22 3.556-12.051 5.895-6.165 3.65-5.885 8.61.468 11.886 7.66 4.024 14.386 9.077 19.991 15.628 2.149 2.433 2.709 4.024-.747 5.896-3.83 2.059-7.193 4.679-10.837 7.112-5.792-2.152-10.556-6.176-15.694-9.452-9.342-7.954-19.244-15.067-28.773-22.741-7.847-6.363-16.162-12.072-24.009-18.248-1.121-.936-2.896-1.498-2.335-3.557 4.39-3.649 8.874-7.206 13.078-11.042 2.056-1.872 3.177-1.498 4.858.374 2.616 2.995 5.792 5.147 9.996 5.053 2.522 0 3.083-.842 1.868-3.088-1.214-2.152-2.335-4.305-3.55-6.551 2.242-1.216 4.111.749 6.446.655-.467-4.117-5.231-6.27-4.764-10.668 7.193-3.837 13.826-8.423 19.711-14.038 2.336-.468 2.709 1.591 3.644 2.901 2.522 3.556 4.39 7.487 6.632 11.23.748 1.311 1.402 2.808 2.896 3.557 4.298 9.732 8.688 19.559 13.172 29.198ZM628.447 476.305c1.589-6.363 3.177-12.634 4.858-18.997 15.975 5.989 32.603 9.265 49.325 11.885 3.644.561 7.287 1.497 11.678 1.123-1.308-2.808-3.644-3.556-5.699-4.586-15.601-7.767-32.323-13.008-48.578-19.184-1.588-.562-3.363-.936-4.484-2.246-.187-1.779.467-3.276 1.028-4.867 1.495-.842 3.083-.281 4.484.187 24.102 6.832 48.951 10.575 73.427 15.255 1.775.374 4.204-.375 4.858 2.433-3.083-.375-4.858.561-5.512 3.93-3.269 17.126-7.847 33.971-14.012 50.255-2.429 1.123-4.111-.562-5.979-1.498-18.591-8.984-36.434-19.371-55.024-28.543-3.55-1.684-7.474-2.339-10.37-5.147ZM482.994 187.973c-4.858-2.152-10.556-2.62-13.919-7.58-.187-3.837-2.055-7.955 1.401-11.417.934 1.965.934 1.965.561 4.398 1.027-7.486 3.736-14.599 5.231-21.992 3.83-19.559 10.183-38.369 15.975-57.4604.467-1.6845.467-3.8369 2.802-4.3984.187 1.2166.841 1.9653 1.962 2.3396 14.2 4.8664 27.652 11.3232 41.291 17.5002-.28 4.305-3.737 6.644-6.072 9.639-16.722 20.682-31.949 42.394-47.177 64.199-.654.935-1.121 1.871-1.121 2.994-.186.655-.373 1.31-.934 1.778Z" fill="#C2DAF3"/><path d="M483.088 186.289c-1.869-1.872.28-2.714 1.027-3.837 17.189-24.987 35.032-49.412 54.183-72.995 11.024-13.2893 22.047-26.4847 33.07-39.7736 17.47-21.0563 34.939-42.1127 53.436-62.32679 1.308-1.40376 2.429-3.18185 5.418-4.30485-3.83 6.64445-7.099 12.54024-10.556 18.34244-19.898 32.8479-38.769 66.3509-59.134 98.9178-.374.655-.561 1.404-.934 2.153-4.017 4.866-7.38 10.294-10.463 15.815-1.028.936-1.682.375-2.242-.561-.374-1.123-.187-2.153.28-3.182 7.38-16.19 14.013-32.754 23.635-47.7277 4.017-6.5509 7.847-13.2889 10.369-17.2194-2.148 3.5561-5.978 9.5455-9.622 15.8156-15.134 24.9865-33.63 47.4475-52.968 69.3455-9.249 10.388-19.058 20.121-29.894 28.824-1.588 1.123-3.083 2.901-5.605 2.714Z" fill="#34CEFA"/><path d="M286.908 642.697c2.802-.28 5.605-.468 8.501-.748 1.495 1.684.841 3.556.467 5.334-1.401 8.422-2.522 16.845-4.297 26.016 2.335-1.216 3.363-2.714 4.39-4.118 5.325-6.831 11.024-13.476 16.442-20.307.934-1.217 1.869-2.527 3.55-2.901 3.083 1.965.748 4.211 0 5.989-5.512 12.54-10.836 25.081-16.161 37.714-3.924 9.172-8.315 18.062-12.238 27.14-.561 1.31-1.401 2.433-2.429 3.369-6.259 12.54-12.518 25.08-18.871 37.62-5.511 10.856-11.397 21.431-18.03 31.632-1.027 1.497-1.681 3.369-4.016 4.024-.094-4.024 1.214-7.674 2.055-11.417 4.857-21.15 11.21-41.832 17.656-62.514.56-1.966 1.121-3.931 1.681-5.803-.186-7.018 3.083-13.289 4.952-19.746 4.39-15.067 8.407-30.321 13.172-45.294.747-2.059 1.121-4.492 3.176-5.99Z" fill="#39CCFA"/><path d="M403.401 636.895c2.803-1.123 5.699-.749 8.595-.655 1.495 1.591 1.868 3.556 2.055 5.615 2.149 20.121 6.913 39.492 14.854 58.022.84 1.872 1.588 3.743 1.961 5.709 1.122 5.615 1.495 11.51 7.007 14.973.56.374.654 1.404.841 2.152-1.121 3.369 2.522 6.458.373 9.827-9.061 1.778-18.216 3.088-27.371 3.743-7.007.562-14.013 1.217-21.02 1.872-1.681-2.995-.56-6.083.094-8.984 2.522-11.605 3.737-23.49 5.792-35.188.187-.936-.094-1.871-.094-2.807 3.083-15.067 5.605-30.228 7.287-45.482.187-2.995.187-5.896-.374-8.797Z" fill="#C2DAF3"/><path d="M293.541 85.8734c6.539 12.821 13.078 25.7356 19.431 38.5566.467.936 2.802 2.246.093 3.463-2.335.187-3.643-1.404-5.138-2.808-4.297-3.837-7.847-8.423-12.051-13.85.747 3.837 1.495 6.551 2.149 9.358 4.297 16.564 8.034 33.222 9.996 50.255.186 1.59 1.027 3.462-.935 4.585-2.148-.187-4.297-.655-6.165-1.778-1.402-.655-1.962-1.872-2.429-3.275-7.941-23.583-16.442-46.886-24.289-70.469-.841-2.5268-1.308-5.0535-1.215-7.7675-8.314-29.2917-17.002-58.4899-28.212-88.24952 4.204 2.43318 5.699 5.42787 7.474 8.04822 11.49 16.9387 19.898 35.5619 29.894 53.3428 3.923 6.9252 7.566 13.8504 11.397 20.5884Z" fill="#38CDFA"/><path d="M615.089 242.158c-2.336-7.112-5.325-13.944-9.903-19.839-4.858-6.177-8.034-6.083-12.051.655-3.456 5.896-8.314 10.294-14.853 12.727-1.402-1.497-.654-2.901.28-4.118 6.446-8.609 13.359-16.938 19.151-26.016.467-.749 1.307-1.31 2.148-1.778 9.342-6.738 17.189-15.161 25.597-22.928 1.401-1.31 2.429-3.837 5.231-2.901 11.117 12.447 21.487 25.361 30.642 39.305.934 1.404 1.868 2.901 3.923 2.62-.28 2.808-2.802 3.182-4.67 3.931-12.892 5.428-25.41 11.698-38.302 16.939-2.336.842-4.578 2.059-7.193 1.403Z" fill="#C2DAF2"/><path d="M286.908 642.697c-6.633 22.46-13.266 44.92-19.898 67.287-.374 1.31-1.028 2.527-1.495 3.837-1.121-2.246-3.363-2.714-5.325-3.556-11.117-4.773-21.86-10.575-32.416-16.377-1.215-.656-2.242-1.685-3.27-2.621-1.027-2.339.934-3.65 2.055-5.24 3.27-4.68 7.1-8.984 9.529-14.225 8.875-9.359 16.162-19.934 23.822-30.228 1.121-1.497 1.962-3.182 3.737-4.024 7.567 2.808 15.227 4.866 23.261 5.147Z" fill="#C2DAF3"/><path d="M608.736 520.945c3.55-6.832 7.1-13.664 10.556-20.495 5.045 1.216 10.463 1.31 15.134 4.024.467.468-.934.842-.187 1.123 18.778 6.644 37.088 14.318 55.958 20.682 1.962.655 4.858.187 5.792 3.088-4.39-.655-5.231 2.808-6.539 5.802-4.391 10.108-9.342 19.84-15.227 29.105-2.896.936-4.578-1.31-6.446-2.714-16.068-12.353-32.697-24.051-50.26-34.345-2.989-1.872-7.006-2.527-8.781-6.27Z" fill="#C3DBF3"/><path d="M471.037 622.39c3.83 7.205 5.605 15.067 8.127 22.74 7.66 23.116 14.2 46.605 22.514 69.627 4.951 15.535 9.996 31.07 14.76 46.698 2.242 7.206 4.017 14.506 3.83 22.367-11.77-20.87-21.486-42.768-33.537-63.45-1.214-1.03-2.242-2.153-2.989-3.556-11.491-20.963-22.701-42.113-32.604-63.918-1.868-4.118-4.017-8.048-5.978-12.166-.841-1.778-2.056-3.556-.654-5.709 2.615-.374 3.363 1.872 4.577 3.276 7.661 8.984 15.227 18.061 22.514 28.449-.374-9.265-2.335-17.5-3.737-25.829-.56-3.65-1.401-7.299-1.868-11.043-.28-1.965-.561-4.024.934-5.802 1.121-1.31 2.803-1.123 4.111-1.684Z" fill="#3BCCF9"/><path d="M695.055 276.878c-23.448 12.072-46.523 24.706-70.251 36.03-4.204 1.965-8.408 3.837-12.611 5.802-1.215-2.527-2.99-4.96-1.495-8.048 11.957-6.27 23.074-14.225 35.686-20.963-9.062 1.217-17.096 3.65-25.223 5.615-1.682.374-3.457 1.685-5.138-.094.56-3.556 1.214-7.205 1.775-10.762 4.017-4.117 9.622-4.772 14.666-6.457 15.601-5.241 31.109-10.481 46.99-14.973 2.336-.655 4.671-1.591 7.287-1.311 12.518-2.62 24.476-7.018 36.713-10.481 8.128-2.34 16.255-4.773 24.757-6.457-16.536 13.008-35.406 21.618-53.156 32.099Z" fill="#3BCDFC"/><path d="M221.421 143.053c-3.55-1.684-3.923-5.708-5.979-8.516-2.148-2.995-3.549-6.457-6.165-9.171-11.771-20.401-23.729-40.6156-35.219-61.1104-11.024-19.559-21.673-39.2116-32.51-58.86424-.841-1.49734-1.495-2.99469-1.495-5.05353 3.55 3.93052 7.1 7.86105 10.463 11.88517 27.279 32.0057 54.37 64.1049 82.209 95.549.841.936 1.775 1.685 2.709 2.527 1.682.468 2.989 1.684 4.017 2.995 11.771 14.037 23.448 28.075 34.939 42.299.934 1.217 3.923 2.434 1.121 4.773-6.726-2.433-11.678-7.58-17.096-11.885-15.881-12.727-28.119-29.011-41.665-43.984-7.286-8.0486-14.199-16.3775-22.14-23.9578 2.149 7.2995 5.418 14.1311 8.968 20.7758 6.54 12.072 12.238 24.519 17.283 37.246.654 1.404 1.494 2.901.56 4.492Z" fill="#39CDF9"/><path d="M137.251 463.671c.841 4.492 2.148 8.797 2.055 13.383-2.429 4.866-7.754 5.802-11.771 8.516-2.615 1.778-5.979 2.62-7.754 5.615-6.726 3.743-14.012 6.457-20.9253 9.733-7.2867 3.462-14.48 7.019-21.6732 10.481-1.5881.749-3.0828 2.246-5.1381 1.03-4.2972-13.102-8.5945-26.204-11.4905-39.68-1.0276-4.679-.3737-5.709 4.2039-5.896 8.9682-.374 17.9364-.655 26.9046-1.029 3.9236 3.182 8.4076 2.62 12.8916 2.059 8.875-1.123 17.75-2.621 26.531-4.492 1.962-.468 4.111-1.217 6.166.28Z" fill="#C2DAF4"/><path d="M444.786 635.117c1.681 7.58 6.072 13.85 9.248 20.776 9.903 21.992 21.767 42.955 32.79 64.385-10.649 2.995-21.299 6.27-32.042 8.891-3.457.842-4.765 1.965-4.484 5.334-2.616-.842-2.149-3.182-2.149-5.054-.374-10.762-2.149-21.337-3.924-31.912-.373-2.152-.84-4.304-2.522-5.895-2.616-19.559-6.446-38.838-9.155-58.397 3.737-.842 7.567-1.684 11.304-2.62.654 1.404 2.148 2.714.934 4.492Z" fill="#C2DBF3"/><path d="M547.547 691.267c-8.408-11.043-16.909-22.086-25.317-33.128-.747-.936-1.681-1.872-1.775-3.182 2.429-.936 3.737.936 5.325 2.059 14.854 10.762 26.998 24.331 38.582 38.369 5.045 6.083 10.089 12.259 15.881 18.342-8.501-15.16-17.469-29.572-25.877-44.265-6.913-11.979-13.639-24.144-17.936-37.433-.841-2.527-2.429-5.147-1.121-8.049.467-1.684.934-1.123 1.495 0 8.781 16.939 19.057 33.036 28.866 49.319 1.028 1.685 2.242 3.276 3.363 4.96 16.909 28.356 33.911 56.712 50.82 85.068 5.325 8.984 10.556 18.061 15.788 27.045.467.843.934 1.591.28 3.182-2.709-2.807-5.138-5.334-7.474-7.954-27.371-30.509-54.182-61.391-79.686-93.397-.467-.374-.934-.655-1.214-.936Z" fill="#3ACCF9"/><path d="M154.44 308.416c-15.508-7.206-31.015-14.412-46.523-21.618-9.1547-4.211-18.3098-8.516-27.4648-12.821-18.5904-9.639-37.8347-17.875-56.1448-28.169-1.4013-.842-3.2696-1.123-4.2038-3.93 21.9534 4.585 42.7858 11.23 63.9919 16.283 13.2655 3.744 26.5305 7.3 39.7965 11.137 14.293 4.117 28.493 8.422 42.786 12.634 1.027.28 2.148.374 3.176.655-1.028 1.497-2.149 2.994-3.176 4.492-8.314-.187-16.068-3.089-24.102-4.492-3.644-.655-7.1-1.966-11.678-1.591 7.1 5.708 14.293 9.92 20.926 14.786 2.242 1.591 4.858 2.714 6.166 5.428-.747 2.714-1.869 5.053-3.55 7.206Z" fill="#3BCDFA"/><path d="M226.466 591.133c4.11 2.433 8.501 4.492 12.238 7.393 3.083 2.433.934 6.363 1.308 9.545-.748 0-1.121-.281-1.215-1.029-.187.187 0 .468-.093.748-.841 3.744-1.028 7.581-3.363 10.763-2.429 2.526-3.457 5.895-4.858 8.89-7.1 15.535-15.975 30.134-24.289 45.014-.934 1.684-1.495 3.93-4.11 3.93-8.688-4.679-16.068-11.136-23.635-17.406-1.215-.936-2.056-2.34-3.831-2.433-.186-2.34 1.775-3.463 2.99-4.96 3.83-4.492 7.286-9.359 11.397-13.664 2.149.188 4.484.188 4.297-2.713-.28-4.399 2.709-7.206 5.605-8.423 8.875-3.837 12.799-11.792 17.563-19.091 3.55-5.428 6.726-11.043 9.996-16.564Z" fill="#C3DBF3"/><path d="M275.604 160.085c0-3.462-2.989-4.96-4.858-7.206-11.677-14.224-23.448-28.355-35.218-42.58 10.743-5.522 21.86-10.201 32.976-14.88 1.682-.7487 3.55-1.123 4.484-2.9947 4.578 13.4757 9.156 27.0457 13.827 40.5217 4.67 13.663 9.435 27.327 14.106 40.99-5.325-1.217-10.557-2.433-15.881-3.744-3.924-2.713-7.941-5.334-9.436-10.107Z" fill="#C2DBF3"/><path d="M630.596 177.866c-7.754 7.113-15.414 14.319-23.168 21.431-2.242 2.059-4.391 4.398-7.38 5.521-.467-1.778.561-2.994 1.495-4.211 10.276-13.944 21.393-27.139 33.911-39.211.654-.656 1.494-1.03 2.429-1.872-20.459 9.639-37.555 24.145-56.986 34.813-8.594 4.679-17.282 9.358-25.877 14.038-1.401.748-2.896 1.965-4.764 1.123-.094-2.527 2.148-2.995 3.643-4.118 19.618-14.88 39.236-29.666 58.947-44.546 24.663-17.313 49.326-34.72 74.082-52.033 5.044-3.462 10.182-6.738 15.787-9.5451-22.327 27.9811-46.522 53.9041-72.119 78.6101Z" fill="#3BCEFA"/><path d="M202.084 676.387c5.605-7.299 9.248-15.628 13.826-23.489 5.885-10.201 11.303-20.589 16.254-31.257.561-1.123.468-3.182 2.523-3.182 1.588 1.965.373 3.931 0 5.802-3.737 16.097-11.024 30.696-18.684 45.108-7.754 14.505-16.255 28.73-21.019 44.92 6.446-9.546 14.013-17.968 21.579-26.391 4.858-5.428 10.65-10.013 16.536-14.318 1.027-.749 2.055-1.497 3.456-1.123 1.215 1.872-.56 2.714-1.308 3.837-3.456 5.053-7.006 10.013-10.556 15.067-11.584 14.037-23.075 28.169-34.752 42.019-15.975 19.091-32.136 37.995-49.138 56.15-1.215 1.31-2.616 2.527-3.924 3.837-.373-.281-.654-.468-1.027-.748 3.549-6.271 6.913-12.541 10.649-18.624 18.03-30.227 35.499-60.736 52.875-91.337.841-1.966 1.682-4.118 2.71-6.271Z" fill="#36CDF9"/><path d="M109.132 353.523c-.934 8.329-.841 16.658.187 24.987-.748 1.404-2.242 1.591-3.644 1.778-15.6007 2.901-31.0148 6.551-46.7092 9.359-1.9618.374-4.017 1.123-5.6985-.656.8407-17.313 3.363-34.345 6.6327-51.377 1.775-1.497 3.5499-.562 5.2314 0 13.2655 4.398 26.4376 8.797 39.7026 13.195 1.682.562 3.27 1.123 4.298 2.714ZM650.121 427.361c6.726-4.586 14.386-6.177 22.233-7.206 6.166-.842 8.408-4.399 6.166-10.294-.747-2.059-1.588-4.024-2.336-6.083.748-2.246 2.896-2.153 4.578-2.433 11.117-1.872 22.234-4.212 33.444-5.615 1.775-.188 3.737-.749 5.138 1.029-.374 16.751-.747 33.503-3.457 50.067-.093.655.374 1.498.561 2.153-2.149 1.497-4.204.28-6.166-.281-15.694-4.773-31.295-9.92-46.616-15.816-4.484-1.778-9.715-1.871-13.545-5.521Z" fill="#C2DAF3"/><path d="M495.045 89.5232c-9.435 27.6068-16.161 55.9628-23.915 84.2258-.093-1.498-.28-3.089-.374-4.586-1.868-2.152-1.121-4.679-.84-7.112 1.868-16.845 2.709-33.784 5.138-50.536.093-.561.093-1.216-.467-2.339-2.71 1.871-4.671 4.305-6.727 6.738-2.709 3.182-5.231 6.551-7.753 9.92-1.121 1.403-1.869 3.369-4.204 3.275-.467-3.556 2.335-5.802 3.55-8.703 5.044-11.885 10.556-23.5833 15.881-35.3748 12.798-24.9869 24.009-50.7225 37.928-75.14784-3.363 27.13934-10.93 53.43634-18.217 79.63984Z" fill="#38CDFB"/><path d="M686.647 261.811c-8.407 3.556-17.469 5.428-26.063 8.329-14.294 4.773-28.587 9.639-42.88 14.412.561-7.674.467-15.348.187-23.022.561-1.591 1.962-2.339 3.176-3.275 14.013-9.733 28.4-18.904 42.132-29.011 1.308-.936 2.616-2.34 4.578-1.217 7.006 10.95 13.172 22.18 18.87 33.784Z" fill="#C2DBF3"/><path d="M161.727 164.577c9.435 7.206 18.87 14.412 28.212 21.712 9.342 7.299 18.497 14.786 27.746 22.273-2.896 1.497-5.139-.655-7.381-1.591-17.095-7.393-33.07-16.564-47.83-27.888-10.93-8.423-22.234-16.377-35.499-23.49 10.556 9.64 19.057 19.653 27.465 29.76 2.709 3.182 5.325 6.457 6.726 10.575-.28 1.31-.654 2.433-2.335 1.31-.374-.374-.654-.655-1.028-1.029-1.495-1.872-3.27-3.556-4.951-5.334-3.644-3.463-7.287-7.019-10.93-10.482-18.871-20.682-37.835-41.27-56.7055-61.952-5.1381-5.615-10.2761-11.137-15.3207-18.53 4.671 1.31 7.1932 3.837 9.9024 5.709 26.7178 19.278 53.3418 38.65 80.0598 58.022.748.28 1.308.561 1.869.935Z" fill="#38CEF9"/><path d="M285.04 720.372c3.643-10.762 9.248-20.682 13.639-31.07 5.511-13.289 11.303-26.578 17.002-39.867.374-.842 1.588-1.778.28-2.901-.373-.561-.467-1.216 0-1.684 3.924-3.931 5.886-9.265 9.342-13.476 1.588-1.03 3.176-.375 4.671.093 1.401 2.246.374 4.586-.093 6.738-3.457 18.53-5.979 37.153-6.913 55.963-4.298 8.797-3.644 18.436-4.671 27.795-.281 2.433.093 4.96-.094 7.486-.187 1.591.094 3.557-2.148 4.118-.374-2.059.56-4.398-3.083-5.053-9.622-1.872-18.777-4.96-27.932-8.142ZM131.739 514.3c5.045 4.773 10.089 9.546 15.041 14.225-.281 2.807-2.896 3.556-4.765 4.96-1.588 1.216-3.083 2.433-4.577 3.743-2.896.281-5.138 2.059-7.38 3.744-9.529 7.206-19.151 14.318-28.493 21.711-1.495 1.217-2.8962 2.901-5.2316 2.34-.0934-3.463-2.2421-6.083-3.6434-8.984-3.4565-7.487-7.7537-14.6-10.5563-22.367-1.121-3.088-2.896-5.053-6.5393-4.492.5605-2.34 2.7091-2.34 4.3907-2.714 15.1338-3.837 30.1739-8.048 45.3079-11.979 2.149-.468 4.298-1.123 6.446-.187Z" fill="#C2DBF3"/><path d="M696.083 529.367c-20.366-6.644-40.544-14.037-60.349-22.366-1.495-.655-1.495-.562-1.401-1.872 1.962-1.497 3.83-.281 5.792.187 17.656 4.492 34.752 10.669 52.314 15.535 8.502 2.34 17.19 4.399 26.438 5.802-13.172-7.58-27.092-11.885-41.011-16.19-17.936-5.615-34.565-14.037-49.699-25.174-.934-.655-1.681-1.404-1.962-2.527.748-2.152 1.589-4.211 2.336-6.363 6.166 1.216 11.49 4.585 17.002 7.393 16.722 8.61 33.351 17.313 50.073 26.016 1.401.749 2.802 1.31 4.204 1.872 23.915 13.289 49.044 24.051 74.174 35-26.531-3.837-52.314-10.2-77.911-17.313Z" fill="#3BCEF8"/><path d="M614.154 594.97c2.149-.188 3.27 1.403 4.578 2.713 6.352 5.99 12.238 12.541 19.151 17.875 10.743 11.511 21.486 22.928 32.042 34.439 6.913 7.58 13.546 15.441 20.272 23.209 1.121 1.31 1.962 2.714 3.177 4.398-2.429.562-3.55-.842-4.858-1.684-20.272-13.102-39.236-27.982-58.387-42.581-1.401-1.03-2.803-1.965-4.204-2.995-15.414-12.446-30.735-24.799-46.055-37.34-1.402-1.216-3.924-2.059-3.457-4.773 2.242-.842 3.83.562 5.605 1.498 16.535 9.077 31.763 20.12 48.018 29.572 2.242 1.31 4.671 2.527 5.792 3.744-8.408-5.896-14.574-14.974-20.272-24.426-.654-1.029-1.588-2.152-1.402-3.649Z" fill="#3ACEF9"/><path d="M213.2 580.745c2.429 1.965 4.858 3.837 7.38 5.802-5.511 4.211-8.781 10.388-13.078 15.628-6.259 7.581-13.546 14.038-20.739 20.682-7.287 6.739-14.106 13.944-19.525 22.367-1.214 1.872-2.429 2.995-4.297.936-4.951-5.334-10.743-9.92-15.134-15.722-.28-1.965 1.308-2.621 2.522-3.556 14.854-11.043 29.614-22.18 44.188-33.597 1.401-1.029 2.709-2.059 3.363-3.743 4.857-3.276 9.715-6.645 15.32-8.797Z" fill="#C2DCF3"/><path d="M198.067 590.197c.84 2.152-1.308 2.526-2.336 3.369-15.507 12.166-31.108 24.238-47.27 35.749-.374.281-.56.748-.841 1.029-12.985 8.891-25.877 17.781-38.955 26.578-10.8369 7.3-21.7669 14.505-32.6035 21.711-.8408.562-1.8684 1.03-3.2697 1.685-.0934-1.965 1.1211-2.808 1.8684-3.743 16.6286-18.717 34.5648-36.311 52.2208-54.092 1.962-1.965 3.831-4.024 5.792-6.083 8.034-7.954 16.162-15.909 24.289-23.676 1.028-1.03 1.682-3.182 3.924-2.434-.561 3.65-3.363 5.803-5.605 8.329-6.633 7.674-12.705 15.722-17.656 24.613-.935 1.591-1.962 3.182-2.056 5.428 2.149.187 3.363-1.404 4.765-2.433 16.909-12.447 34.565-23.864 52.595-34.533 1.588-.842 3.082-2.152 5.138-1.497Z" fill="#39CDFA"/><path d="M608.736 520.945c21.767 11.791 42.039 25.829 61.657 40.989 1.214.936 2.615 1.591 4.017 2.34 4.203 3.65 8.407 7.3 12.518 11.043.84.749 2.335 1.684 1.214 2.995-.841 1.029-1.962-.094-2.989-.468-4.765-1.778-9.529-3.65-14.293-5.522-21.393-9.639-43.066-18.623-63.619-30.134-2.989-1.684-5.605-4.024-9.155-4.492 3.644-5.615 7.194-11.23 10.65-16.751Z" fill="#3CCCF9"/><path d="M131.739 514.3c-17.936 4.773-35.9661 9.452-53.9026 14.225-.7473.187-1.4012.561-2.1486.842-23.1679 5.054-46.149 11.137-68.94318 17.781-1.86838.562-3.73671 1.685-6.259024.842 5.231454-3.556 10.649704-6.27 15.974604-8.89 18.4035-8.891 36.9005-17.781 55.3974-26.578 12.705-5.989 25.4099-11.979 38.1144-17.968 3.177-1.497 6.446-2.807 9.716-4.211 5.045-3.931 11.21-5.147 17.189-6.458.934-.187 1.869 0 2.522.843-3.082 4.305-7.94 5.896-12.424 7.861-4.391 1.871-6.54 4.492-5.605 9.265-1.402 2.714-4.204 2.994-6.727 3.743-16.6281 5.053-33.6303 8.89-50.1655 14.412-2.8959.936-5.8854 1.872-8.3143 4.398 1.9618 1.498 3.7368.843 5.5118.655 15.1338-1.123 29.5203-5.708 44.28-8.796 5.886-1.217 11.771-2.808 17.75-4.025 1.868-.374 3.643-.655 5.512-.28.934.655 1.681 1.497 2.522 2.339Z" fill="#3CCFFA"/><path d="M650.121 427.361c12.892 3.556 25.223 8.797 37.928 12.821 9.435 3.088 18.777 6.457 28.493 8.703 13.358 4.118 26.717 8.142 39.983 12.353 1.588.468 4.764.468 4.204 2.621-.468 2.058-3.177.468-4.858.187-12.145-2.246-24.382-4.492-36.527-6.738-9.715-1.872-19.431-3.556-29.053-5.522-18.03-3.65-36.34-6.363-53.81-12.353 3.27-5.428 8.035-9.265 13.64-12.072Z" fill="#3BCDFA"/><path d="M108.291 221.757c14.854 7.019 29.801 14.038 44.654 21.057 7.287 3.462 14.48 7.112 21.393 11.23 1.588.935 3.176 1.871 3.83 3.837-.747 1.403-1.868.842-2.802.561-8.782-1.965-17.376-4.866-25.877-7.674-1.775-.561-4.017-2.059-5.699-.187-1.401 1.591.561 3.088 1.028 4.679.28.842 1.214 1.685.187 2.527-.841.655-1.775.094-2.523-.374-5.511-3.744-11.023-7.487-16.535-11.23-7.94-5.428-15.974-10.763-23.915-16.097-6.9131-5.241-13.8261-10.481-20.6457-15.816-1.8683-1.403-3.5499-2.994-5.2314-4.585-.9342-.936-2.7092-1.965-1.775-3.369 1.121-1.591 2.8026-.375 4.2039.374 2.896 1.497 5.6985 3.088 8.5945 4.586 7.0064 3.369 14.1067 6.925 21.1127 10.481Z" fill="#3BCCF9"/><path d="M667.87 228.027c-11.864 8.049-23.635 16.003-35.499 24.051-4.764 3.182-9.622 6.364-14.386 9.452-.935-6.457-1.869-12.914-2.896-19.372 15.32-5.989 30.174-13.101 45.308-19.652 1.681-.749 3.269-1.778 4.857-2.714 5.606-2.62 11.211-5.334 17.003-7.768 2.148-.935 5.511-3.556 6.539-1.59 1.588 2.901-2.522 3.93-4.391 5.427-5.325 4.399-11.49 7.487-16.535 12.166Z" fill="#3DCBFA"/><path d="M109.132 353.523c-14.4801-4.773-28.8667-9.545-43.3466-14.318-1.8684-.655-3.9236-1.03-5.792-1.591-13.9194-4.866-27.7454-9.733-41.6648-14.506-.7474-.28-1.4947-.467-2.1486-.842-.9342-.468-2.1486-.842-1.6816-2.339.4671-1.404 1.775-1.217 2.8026-.936 4.9512 1.029 9.9958 2.246 14.947 3.369 9.5288 2.059 19.0575 4.117 28.5862 6.083 17.0022 4.024 34.0979 8.048 51.0998 12.072-1.027 4.305-1.868 8.703-2.802 13.008Z" fill="#3DCEF9"/><path d="M329.974 76.515c4.578 12.4467 9.622 24.893 10.65 38.369.187 2.246.841 4.586-.467 7.019-2.336-.936-2.99-3.462-4.765-4.866-.84-.655-1.308-1.965-2.615-1.497-1.215.467-.841 1.871-1.028 2.901-.093 1.029.28 2.152-.934 3.462-4.017-6.083-5.045-12.914-6.54-19.559-1.681-7.6737-3.082-15.4411-4.577-23.115-1.775-13.1017-5.699-25.8292-7.941-38.8373-.467-2.9011-.934-5.8022-.654-8.8905 6.259 14.9734 12.518 30.0404 18.871 45.0138Z" fill="#3FCBF7"/><path d="M53.3607 388.992c8.2208-.656 16.068-2.902 24.102-4.305 10.6498-1.872 21.1127-4.96 31.8563-6.177.56 1.31 1.027 2.714.747 4.211-.654 1.685-2.242 2.059-3.737 2.434-13.2653 3.275-26.7176 5.708-40.0765 8.703-1.2145.281-2.4289.374-3.2697 0 11.7708 2.246 23.635 5.708 35.1256 10.575 1.7749.749 4.0166 1.123 4.5776 3.556-4.9514 1.029-9.6223-.655-14.3866-1.31-12.0511-1.685-23.9153-4.024-35.8729-6.083-11.6774-1.497-23.2613-2.995-34.9387-4.586v-1.123c11.9576-2.059 23.9153-3.93 35.8729-5.895Z" fill="#3BD1FA"/><path d="M719.344 396.665c-11.117.655-21.86 3.276-32.79 5.054-3.456.561-6.913 1.31-10.369 2.059-1.215-1.591-2.149-3.276-2.523-5.241 1.121-1.872 2.99-2.059 4.858-2.34 9.062-1.403 17.936-3.837 27.185-4.96-8.034-1.216-15.788-2.807-23.448-4.866-5.699-1.497-11.584-2.527-17.189-4.305-1.682-.561-3.083-1.403-4.578-2.339-1.775-1.217-3.27-2.808-4.484-4.586 5.512-.374 10.65 1.685 15.975 2.714 15.787 3.182 31.388 6.738 47.456 8.329 12.612 2.059 25.224 4.118 37.835 6.083 0 .374-.093.749-.093 1.123-12.612 1.684-25.317 1.31-37.835 3.275Z" fill="#3CCEF9"/><path d="M397.236 691.548c1.214 4.96-.654 9.733-1.215 14.506-1.401 10.762-3.55 21.337-5.325 32.099-1.588 6.925-3.082 13.85-4.857 20.775-.654 2.434-.935 5.147-3.55 7.581-2.336-9.64-2.71-19.091-3.924-28.263-1.401-14.412-2.896-28.73-4.297-43.142-.28-2.433-.187-4.96-.187-7.487 3.27-.187 4.577 2.34 5.792 4.492 2.709 4.773 3.924 10.108 3.83 15.629-.093 3.837-.093 7.767 1.682 11.792 2.335-1.311 2.615-3.557 3.082-5.522 1.402-6.176 3.363-12.259 5.792-18.155.654-1.685.935-3.837 3.177-4.305Z" fill="#3DCDF9"/><path d="M96.4268 565.116c10.5562-8.048 21.1122-16.19 31.8562-24.051 2.709-1.965 4.951-5.428 9.155-4.211.84-.655 1.775-1.31 2.896-1.217 6.446.188 12.891-1.216 19.337-.468 2.056.656 4.111 1.217 5.886 2.621-20.646 10.668-42.226 19.278-63.245 29.198-1.121.561-2.148 1.123-3.2694 1.684-3.9236 1.123-7.2867 3.837-11.8643 4.586 2.6158-3.743 6.6328-5.147 9.2485-8.142Z" fill="#3ACEFC"/><path d="M595.284 658.326c-4.391-3.744-8.782-7.393-12.705-11.698-1.308-1.404-2.523-2.808-3.083-4.586-.467-1.31-1.588-2.62-.654-3.93 1.214-1.685 2.522-.188 3.737.187.934.281 1.775.749 2.616-.094.747-.842.186-1.778-.187-2.62-2.056-4.024-3.737-8.142-5.138-13.57 10.649 7.955 17.189 18.436 25.503 27.046 6.726 8.797 14.854 16.564 19.992 26.765-11.117-3.931-20.179-11.417-30.081-17.5Z" fill="#3ACEF9"/><path d="M189.659 139.403c1.868 2.995 3.83 5.896 5.698 8.891.561.936 1.308 1.965.748 2.995-.748 1.216-1.962.28-2.896 0-1.775-.468-3.457-1.217-5.232-1.779-3.83-4.492-7.66-8.984-12.144-12.821-1.121-.935-2.616-2.433-4.111-1.31-1.681 1.311-.654 3.182.281 4.586 1.121 1.872 1.961 3.837 2.055 6.176-13.359-12.446-21.113-28.636-29.801-44.452 16.909 10.575 31.482 23.77 45.402 37.714Z" fill="#3CCEF7"/><path d="M447.402 76.5151c-1.869 10.2006-2.709 20.5884-5.419 30.6019-.84 2.995-1.868 5.896-2.989 8.797-.467 1.123-1.121 2.527-2.522 2.433-1.775-.187-1.869-1.965-1.869-3.275-.373-7.581-.654-15.2545 1.121-22.7412.467-2.0589 1.495-4.1177-.747-5.8958-.934-.7487 0-2.0589.28-2.9947.561-2.246 2.055-4.2113 2.055-6.6444 5.232-11.6044 9.062-23.6768 13.826-35.4683.935-2.246 1.869-4.5856 3.177-6.7381-1.962 13.944-5.232 27.7944-6.913 41.9256Z" fill="#3DCDF7"/><path d="M441.89 691.267c3.55.375 3.27 3.463 3.643 5.615 1.869 11.605 3.924 23.115 4.017 34.907 0 .842.467 1.778.654 2.62.748 7.581 1.495 15.161 2.149 22.741.093 1.123.654 2.808-1.121 3.089-1.215.187-1.495-1.311-1.962-2.34-3.27-6.738-5.512-13.944-8.127-20.869-.561-1.591-.841-3.369-2.056-4.586.467-3.182-3.082-5.896-1.027-9.265 3.363-.374 1.775-2.807 1.588-4.211-.841-4.679-1.868-9.452-2.522-14.131-.654-5.241-.935-10.481 4.764-13.57Z" fill="#3ECEF6"/><path d="M315.961 733.567c.561-7.486 1.121-15.067 1.775-22.554.374-4.117 1.028-8.328 1.775-12.353.374-1.684.747-3.743 2.803-4.492 2.148 2.527.934 5.335.654 7.955.467-2.059.934-4.118 1.961-6.083.748-1.31 1.121-3.275 3.177-2.62 1.681.561 2.148 2.339 1.868 3.93-.747 4.773-.467 9.639-1.121 14.412-.28 2.059-.374 4.024.934 5.802-.373 5.147-3.456 9.639-3.923 14.787-3.737 8.422-5.792 17.593-10.557 25.642-.934-8.236.934-16.284.654-24.426Z" fill="#39CCF8"/><path d="M716.448 357.173c-2.149 3.369-1.028 7.861-3.55 11.23-.56-3.088-.934-6.176-1.681-9.171-2.616-10.388-8.875-16.471-20.272-16.564 11.023-4.118 22.514-7.3 24.756-22.648 1.775 5.334 3.269 9.171 4.39 13.102 1.215 4.398 4.111 6.832 9.996 8.142-9.528 2.339-12.051 8.797-13.639 15.909Z" fill="#3DCEFA"/><path d="M575.572 153.16c-.56-2.714 1.589-3.743 3.177-5.147 2.896-2.714 5.885-5.241 8.874-7.861 9.529-7.206 17.843-15.816 26.905-23.677 2.055-1.778 4.111-3.837 8.034-5.427-7.473 13.944-18.123 23.77-27.558 34.626-4.671 4.866-9.436 9.639-13.92 14.692-3.083 3.463-6.072 3.744-9.342.375-.28-3.276 3.55-4.492 3.83-7.581Z" fill="#39CDF8"/><path d="M386.025 69.9642c.561 5.3343 1.402 10.7621 1.682 16.0964.093 1.0294 2.429 4.5856-2.149 3.6498-.841-.1872-.56 1.2166-.56 1.8717 0 2.1524 0 4.3048.093 6.5508 1.121 2.3401-.093 4.0241-2.055 4.8661-2.149.936-3.363-.748-4.671-2.152-1.588-1.7782-1.214-4.4922-2.709-6.3638-2.336-5.1471.56-10.1071.28-15.2542-.187-2.4332.467-4.8664.654-7.2995 1.495-9.3584 2.989-18.6232 4.578-27.9816.28-1.4973 0-3.1818 2.428-4.8664.374 10.7622 1.028 20.8692 2.429 30.8827Z" fill="#3ACEF7"/><path d="M189.098 637.925c-3.176 7.486-9.435 12.54-14.386 18.623-8.782 8.329-16.909 17.406-26.625 24.706-1.401 1.029-2.615 2.152-5.605 2.339 5.699-12.54 13.266-22.834 21.113-33.222 1.121 1.497.561 2.433.374 3.463-.281 1.684-.748 3.65 1.308 4.398 2.055.749 2.989-1.123 3.923-2.527 4.858-7.018 8.968-14.599 15.321-20.494.747-.749 1.588-1.498 2.709-2.527.747 1.965 1.308 3.556 1.868 5.241Z" fill="#3ACFF8"/><path d="M137.251 463.671c-10.556 1.872-20.926 4.305-31.669 5.428-3.363.375-6.8197.375-10.2762.375-2.1486 0-4.017-.843-3.7368-3.65 13.919-6.738 28.866-9.639 43.813-12.26 1.589 3.182 1.215 6.738 1.869 10.107Z" fill="#3ACDFA"/><path d="M123.238 340.234c.093-.468.093-.936.187-1.403 2.055-8.049 2.055-7.955 10.089-6.458 5.138.936 10.463 1.591 15.601 2.527 3.643.655 5.792-.936 7.1-4.305 17.936-45.201 48.858-79.546 88.001-107.247 4.671-3.275 10.462-5.053 13.732-10.107.467-1.404 1.121-2.714 2.896-1.965 4.764 1.871 9.996 1.965 14.76 3.93 1.962 1.591 4.204 2.808 6.82 2.34 9.435-1.685 17.189-5.989 21.673-14.88 1.308-2.433 1.495-5.053-.654-7.299-1.868-1.03-3.27.093-4.671 1.029-10.183 6.644-21.58 8.142-33.35 7.674-2.99-.094-5.419-1.217-7.287-3.556-5.045-6.177-10.556-11.698-17.189-16.19-.747-.468-1.495-1.217-1.121-2.34 14.386-5.054 29.053-3.931 43.626-1.123 8.688 1.685 17.19 4.024 25.691 6.551 4.297 1.31 8.407 1.591 12.798.187 21.113-6.832 42.879-10.201 65.02-11.136 5.044-.188 9.061-1.779 12.705-5.709 11.023-11.979 24.756-20.121 39.516-26.765 2.709-1.217 2.989.187 3.456 2.34 2.709 13.944 8.315 26.671 16.535 38.182 3.644 5.053 8.221 8.609 14.107 10.856 29.987 11.604 56.798 28.075 79.312 51.283 4.578 4.773 9.809 4.305 15.134 3.276 11.491-2.153 22.14-6.27 29.988-15.535 1.681-2.059 2.428-1.029 3.269.655 1.588 3.088 2.709 6.27 3.27 9.639-.561 11.23-4.111 21.337-11.677 29.76-8.782 9.733-22.421 10.762-32.697 2.62-.561-.468-.934-1.31-1.775-1.31-.093 0-.187.281-.187.374-.093.188-.093.281-.093.468-1.495 7.113 1.308 12.821 5.418 18.156 1.682 2.246 3.643 4.304 4.671 6.925 5.045 13.476 8.875 27.233 10.93 41.457 3.737 26.017 3.457 51.939-4.391 77.207-5.418 17.687-14.386 33.784-25.316 48.664-20.926 28.543-46.056 52.687-76.51 70.843-6.54 3.93-13.546 7.112-20.366 10.481-2.709 1.029-5.605 1.778-8.314 2.995-7.193 3.275-13.639 2.059-20.178-1.966-4.017-2.433-7.661-5.802-12.612-6.457-1.121.749-1.121 2.246-1.681 3.276-5.045 8.89-9.529 18.248-17.376 25.267-5.979 5.334-13.359 7.113-19.338 3.837-4.11-2.246-7.1-5.989-9.902-9.733-3.644-4.866-6.54-10.2-9.436-15.534-.56-1.685-1.308-3.276-.934-5.148-.654.655-.374 2.059-1.121 2.808-6.446 5.428-14.293 7.955-21.86 11.23-1.588.655-3.363.281-5.045 0-24.195-4.211-47.643-10.575-69.597-21.992-14.48-7.487-27.558-16.939-39.142-28.356-4.391-4.305-8.408-5.522-14.48-3.369-18.497 6.551-37.181 6.644-55.584-.842-3.364-1.404-7.661-2.34-8.221-7.113 30.548-18.717 36.433-53.811 24.102-83.196-3.27-2.714-2.055-6.27-1.308-9.545 2.429-11.043 2.522-10.95-6.913-17.22-14.106-9.452-25.317-21.15-29.427-38.276-.841-3.275-1.495-6.925-.654-10.762Z" fill="#F2F8FA"/><path d="M137.438 499.608c5.979 6.738 14.199 8.703 22.42 10.107 15.228 2.62 30.268 1.59 44.655-4.586 4.577-1.965 7.473.468 10.276 3.182 14.199 13.944 30.174 25.174 48.297 33.503 18.59 8.61 38.208 13.195 58.013 17.781 9.716 2.246 16.162-3.837 23.915-6.551 2.242-.842 4.485-2.059 6.166-3.931 1.775 1.404 1.308 3.369 1.401 5.147.561 16.378 10.65 28.731 26.531 31.257 9.903 1.591 18.217-2.246 24.943-9.639 2.523-2.714 3.55-6.644 6.913-8.609 2.523-.281 4.858.748 7.287 1.403 8.314 2.434 16.722 3.557 25.223 1.498 1.028-.281 2.429-.094 2.709-1.31.28-1.311-.934-1.779-1.775-2.527-2.616-2.153-5.418-4.211-7.94-6.458-.841-.748-1.682-1.59-1.308-2.807.373-1.217 1.494-1.31 2.615-1.497 3.177-.562 6.166-.094 9.249.655 3.456.842 6.726 2.246 10.463 2.62-.748-3.743-5.512-4.96-5.232-8.984 9.436-5.428 19.338-9.826 28.493-15.909 10.089-6.738 19.805-14.038 28.68-22.18 15.601-14.318 29.987-29.759 41.945-47.353 14.106-20.682 24.195-42.768 27.278-68.035 3.737-31.257.187-61.579-10.556-91.058-.467-1.216-.748-2.339-.561-3.649 1.775-.843 2.896.468 4.111 1.31 1.962 1.31 3.83 2.714 5.979 3.65 1.494.655 3.456 1.684 4.484-.375.934-1.871-1.028-2.62-2.242-3.462-3.924-2.433-7.567-5.241-11.024-8.516-5.325-4.96-9.248-10.763-11.677-17.594.093-1.31-.467-2.714.467-4.024 8.034 10.107 25.784 11.978 33.911 1.778 4.671-5.802 8.501-11.792 10.276-19.091.934-3.556 1.962-7.206 2.896-10.762 3.363 8.329 2.989 17.032 3.083 25.735.187 14.225-1.401 28.169-8.595 40.99-3.643 1.872-2.615 4.96-1.681 7.674 3.456 9.826 6.819 19.746 9.248 29.947.561 2.339.654 5.053 3.363 6.27 1.028 1.216 1.962 2.339 2.99 3.556-1.869 1.965-4.578 2.433-6.82 3.837-10.369 6.738-5.792 22.834 1.308 27.326 2.709 1.685 5.699 1.31 8.595 1.217 14.48-.468 28.399 2.059 41.758 7.767 2.335 1.03 4.204 2.527 6.352 3.837.748 1.217 1.402 2.34 2.055 3.556 1.495 2.621.841 3.369-2.241 4.025-16.629 3.556-30.268 11.698-38.956 26.952-3.27 1.403-4.671 3.93-5.418 7.393-7.007 36.778-21.954 69.813-46.056 98.637-3.27 3.931-4.204 8.516-5.699 13.008-3.269 3.837-2.428 8.516-2.896 13.008-2.896 23.49-31.762 38.183-50.633 35.656-2.335-.281-5.044-.281-6.352-3.088 11.023-9.452 21.299-19.466 29.427-31.632 6.072-8.89 11.304-18.249 13.172-29.011.28-1.778 1.028-3.649-1.308-5.708-10.837 18.997-22.514 37.246-39.329 51.471-7.38 3.93-14.48 8.329-22.141 11.698-24.008 10.762-49.045 17.687-75.389 19.652-25.69 1.966-51.193 1.778-76.51-3.743-2.335-.468-4.764-.842-6.726.749-4.204 3.556-9.248 4.96-14.293 6.457-17.189 5.054-33.911 5.709-50.073-3.556-7.566-4.399-10.836-10.669-10.743-19.091 4.484 1.403 8.782 3.649 13.826 3.182-7.193-4.118-14.48-8.236-21.673-12.354-4.671-2.713-9.715-4.772-13.732-8.516-5.792-6.083-12.425-11.043-18.217-17.219-4.764-5.054-9.529-10.201-13.92-15.722-3.176-4.024-7.099-6.832-12.051-8.329.281-1.685.281-1.685 1.402-1.872 6.165-1.31 11.957-3.462 16.161-8.422 2.336-2.714 4.484-5.522 4.111-10.575-4.204 8.048-10.744 11.043-18.217 12.54-7.567 1.497-14.76.187-21.767-2.714-13.826-5.709-24.756-15.161-34.565-26.203-2.802-2.621-.28-2.902 1.869-3.369Z" fill="#B8C5F2"/><path d="M550.256 209.404c24.289-12.353 47.644-26.203 70.064-41.832 5.699-3.93 11.864-7.206 19.898-9.358-15.414 14.973-28.679 29.947-40.076 46.511-5.979 8.142-12.145 16.19-17.937 24.332-1.495 2.059-4.297 3.369-3.83 6.551-4.11 2.62-8.875 3.743-13.546 4.679-1.868.374-3.643.374-5.138-1.217-7.193-7.767-15.507-14.412-23.635-21.15 4.671-2.807 9.436-5.615 14.2-8.516ZM160.699 195.46c-7.474-10.762-16.255-20.401-25.13-29.947-3.456-3.743-6.913-7.486-10.369-11.136 2.616-.562 4.671 1.404 6.819 2.62 13.92 7.487 26.064 17.5 38.863 26.578 14.48 10.294 30.174 18.623 46.803 24.893 4.951 3.463 10.462 5.896 14.853 10.107-10.463 7.487-20.085 16.097-29.707 24.613-10.837-9.639-20.739-20.308-29.427-31.912-.747-.936-1.028-2.246-2.336-2.808-4.203-3.65-7.753-7.954-10.369-13.008Z" fill="#FDFDFD"/><path d="M123.238 340.234c1.868 23.022 14.667 38.65 33.631 50.068 6.633 4.024 7.567 6.644 5.231 14.131-1.214 3.837-2.242 7.861-.467 11.791-1.681 3.744-.56 7.487-.28 11.324 1.027 15.348-1.121 30.134-8.501 43.797-.561.936-1.028 1.872-1.682 2.808-.093.187-.56.187-1.121.374-3.269-15.628-6.072-31.35-5.885-47.353.093-5.896-1.588-10.388-5.605-14.599-10.183-10.669-17.189-23.209-19.151-38.089-1.588-11.698-.374-23.115 3.83-34.252Z" fill="#B9C6F2"/><path d="M275.604 160.085c3.177 3.369 6.259 6.738 9.436 10.107-6.82-.374-13.453-1.871-20.366-1.965-9.902-.187-19.431 1.404-28.866 4.024-3.83-2.901-4.671-7.58-6.633-11.604-2.803-5.709-5.138-11.698-7.66-17.594-7.661-22.554-20.926-42.487-28.773-65.1342 4.204 2.246 7.193 5.7086 10.182 8.9841 13.453 15.0671 26.812 30.2271 40.264 45.2941 9.435 10.856 20.926 19.372 32.416 27.888ZM397.236 691.548c-3.27 7.206-6.073 14.599-7.661 22.46-.28 1.404-.654 2.714-1.121 4.024-.654 1.685-1.121 4.024-3.456 3.744-2.429-.188-1.588-2.621-1.962-4.118-1.308-5.802-.093-11.885-1.682-17.594-1.307-4.866-2.802-9.639-7.473-12.447-2.896-7.299-2.242-15.254-3.643-22.834-1.495-7.861-2.336-15.909-3.644-23.77-.373-2.527.094-3.931 2.803-4.024h34.191c3.737 1.403 2.149 4.585 1.869 6.738-1.682 14.131-3.55 28.168-6.446 42.112-.467 1.872-1.215 3.744-1.775 5.709Z" fill="#FDFDFD"/><path d="M571.742 86.8092c-9.435 16.1898-16.815 33.3158-24.476 50.3478-1.775 6.364-5.418 11.792-9.061 17.126-8.968 15.629-13.92 32.755-18.684 49.974-.187.749-.093 1.591-.093 2.34-11.865-6.739-23.916-13.196-36.434-18.624 0-.561.094-1.123.094-1.684 16.908-12.634 31.015-28.075 44.747-43.985 15.601-18.155 29.988-37.246 42.88-57.3664 1.588-.0936 1.775.655 1.027 1.8716Z" fill="#FDFDFE"/><path d="M535.215 623.98c5.232 19.84 15.508 37.247 25.877 54.653 6.913 11.605 13.64 23.396 20.366 35.094.467.749 1.214 1.498.56 2.808-3.456-2.059-5.792-5.147-8.221-8.048-10.836-12.634-20.925-25.923-33.07-37.34-6.352-5.99-12.798-11.792-20.365-16.284-7.567-7.487-13.92-16.096-20.552-24.425-4.017-5.054-8.595-9.733-11.211-15.816 1.402-1.591 2.896-.655 4.204.094 12.238 7.206 25.41 8.984 39.236 6.457.748-.094 1.495 0 2.336 0-.094 1.029-.187 2.152.84 2.807Z" fill="#FDFDFD"/><path d="M236.368 672.457c-17.469 11.885-30.174 28.356-43.066 44.827 1.308-7.394 3.83-14.319 7.1-20.963 7.006-13.944 14.387-27.607 21.486-41.458 5.886-11.604 10.37-23.677 12.705-36.498 1.308-4.024 2.523-8.048 3.831-12.165 1.214 0 .653 1.59 1.494 1.778.094 13.569 7.474 21.992 19.151 27.42 1.495.748 2.99 1.497 4.484 2.246-4.204 7.954-10.276 14.599-15.601 21.711-3.363 4.773-6.539 9.826-11.584 13.102ZM254.211 599.649c.467.936 1.308 1.965 1.308 2.994.748 11.23 9.062 14.974 17.75 18.624 13.546 5.708 26.998 3.369 40.544.187 5.698-1.31 10.836-3.182 15.227-7.206 1.214-1.123 2.802-1.404 4.764-.936 22.514 5.241 45.402 5.896 68.383 5.053 26.998-1.029 52.968-6.925 78.005-17.313 9.342-3.836 18.403-8.328 26.998-13.476.841-.468 1.868-1.497 2.802-.093-17.749 15.722-38.955 24.706-61.469 30.882-36.714 10.108-73.895 11.137-111.169 3.463-8.501-1.778-16.161-.936-23.915 2.714-9.996 4.773-20.272 8.61-31.762 7.112-9.156-1.216-17.376-4.304-24.85-9.732-4.204-3.089-6.352-7.113-6.352-12.353 0-2.621.093-5.335-.094-7.955-.28-4.305 1.401-3.743 3.83-1.965Z" fill="#FDFDFE"/><path d="M198.067 590.197c-19.805 11.23-38.676 23.676-56.986 37.059-.747.561-1.495 1.123-2.242 1.591-1.401.842-2.709 2.901-4.391 1.404-1.494-1.404 0-3.276.748-4.68 3.736-7.58 8.501-14.505 13.732-21.056 3.924-4.866 8.034-9.546 12.051-14.225 6.353-7.019 12.985-13.944 19.058-21.243 3.083-3.744 6.632-6.738 10.463-9.639 7.193 7.486 14.853 14.505 22.7 21.337-4.39 4.211-9.995 6.363-15.133 9.452Z" fill="#FDFDFD"/><path d="M375.656 94.4832c.654-.1872 1.308-1.123 1.682.1872.373 1.123.653 2.3395 1.027 3.4626.561 1.965 1.215 4.211 3.643 4.118 2.243-.094 2.429-2.5271 2.99-4.2116 1.681-1.3102.093-3.6498 1.962-5.4279 1.401 6.6445 2.522 13.1015 4.017 19.4655 3.55 14.318 7.94 28.356 9.809 43.049-2.896 2.994-5.792 5.895-8.595 8.984-1.588 1.684-3.643 2.152-5.885 2.152-3.55 0-7.1.187-10.65.187-3.176.094-5.045-.655-5.325-4.492-.654-9.171-.56-18.342 0-27.514.934-13.382 4.017-26.577 5.325-39.9598Z" fill="#FDFDFE"/><path d="M441.89 691.267c-1.121 1.03 1.868 5.241-2.99 3.65-1.307-.468-.747 1.685-.84 2.62-.187 8.049 1.681 15.722 3.269 23.49.281 1.497.748 3.275-1.214 4.024-1.308.468-2.055-.374-2.149-1.778-.467-1.497-1.027-3.182-2.522-3.743-4.11-1.498-4.671-4.773-4.951-8.517-.374-5.989-2.99-11.417-5.232-16.751-7.006-16.658-10.556-34.158-12.518-52.033-.187-1.965-.56-3.93-.841-5.989 6.82-1.029 13.64-1.965 20.366-2.995 3.456 4.586 2.709 10.295 3.736 15.442 2.429 12.727 4.204 25.454 6.353 38.275.467 1.591.28 2.902-.467 4.305ZM329.787 717.471c-3.643.468-2.896-2.246-2.522-3.931.934-4.773.654-9.545 1.214-14.318.187-1.778.654-3.65-.747-5.615-2.242 3.182-2.989 6.738-4.484 11.043-1.495-4.024-.374-7.3-.841-10.482-2.522-5.334-.28-10.762.28-16.002 1.402-14.225 3.177-28.544 6.259-42.581.281-1.31.654-2.714.935-4.024 7.006.468 13.826 2.152 20.645 3.556-2.522 26.484-9.248 52.033-18.03 77.019-.747 1.779-1.775 3.557-2.709 5.335Z" fill="#FDFDFD"/><path d="M664.227 403.216c-2.336.842-3.55-1.31-5.325-2.059-13.733-6.083-28.026-8.703-42.973-8.329-9.902.281-15.414-4.585-17.002-14.411-1.681-9.92 4.484-18.343 14.106-19.279 15.882 6.551 29.614 16.19 40.918 29.292 3.923 4.492 7.473 9.358 10.276 14.786Z" fill="#FBFCFD"/><path d="M307.086 175.62c-.84-15.067-4.39-29.666-7.753-44.358-1.682-7.394-3.55-14.693-4.858-22.273 6.539 6.176 11.397 13.756 18.59 19.091 6.726 5.896 9.249 14.412 13.92 21.618 4.671 7.112 8.314 14.786 12.144 22.366-7.006 1.965-13.919 3.931-20.926 5.802-3.923.843-7.567-.842-11.117-2.246Z" fill="#FDFDFD"/><path d="M614.154 594.969c4.111 5.803 7.941 11.792 12.238 17.501 3.644 4.866 8.034 8.984 12.612 13.195-3.176-1.778-6.54-3.463-9.622-5.428-14.947-9.171-29.801-18.436-44.748-27.607-2.616-1.591-5.512-2.901-8.221-4.305-.934-1.217-2.242-1.684-3.737-1.778 1.402-6.738 3.177-13.383 3.177-20.401 0-3.557 3.55-5.522 5.885-7.861 6.82 5.24 11.304 12.633 17.002 18.904 5.325 5.802 10.276 11.885 15.414 17.78Z" fill="#FDFEFE"/><path d="M626.112 482.669c4.577 2.995 9.155 5.989 13.733 8.89 14.573 9.359 30.454 15.442 46.989 20.308 11.491 3.369 22.421 8.235 33.164 13.663.654.375 1.495.562 1.401 1.966-2.429.748-4.951.093-7.473-.375-18.591-3.275-36.34-9.545-54.37-14.973-8.314-2.527-16.722-4.679-25.13-7.019-3.176-1.591-6.819-1.123-10.089-2.246-1.682-.561-3.643-.749-4.858-2.34 2.149-6.083 4.391-11.978 6.633-17.874Z" fill="#FCFEFD"/><path d="M455.996 129.016c6.166-7.955 11.864-16.284 20.739-24.145-2.055 22.273-4.017 43.329-5.885 64.292-2.149 3.463.467 7.674-1.682 11.23-9.622-12.353-14.76-26.484-17.095-41.832-.561-3.93 2.522-6.364 3.923-9.545ZM102.686 407.895c-12.9854-6.457-26.9048-10.107-41.011-13.756 15.9746-4.68 32.5098-6.832 48.391-11.511 2.989 11.23 8.314 21.337 15.321 30.602-.467.748-1.121.936-1.962.655-6.913-1.965-14.106-2.901-20.739-5.99Z" fill="#FDFDFD"/><path d="M568.005 556.787c-1.775-8.422 4.391-13.101 8.688-18.623 19.712-25.268 32.977-53.53 39.984-84.787.84-3.65 2.242-7.206 2.429-10.856.28-4.398 2.428-5.24 6.072-4.772-.561 13.756-4.204 26.952-8.501 39.96-9.529 28.543-24.102 54.185-45.122 75.896-1.214 1.123-2.335 2.153-3.55 3.182Z" fill="#FBFCFD"/><path d="M635.36 444.299c11.024 2.34 21.113 7.113 31.576 10.856 8.034 2.901 15.788 6.364 23.542 10.014 2.429 1.123 6.632 2.526 5.698 5.802-.841 3.182-4.391.655-6.633.374-17.936-1.871-35.312-6.176-52.594-11.043-1.682-.468-3.364-.935-3.737-2.994.747-4.305 1.495-8.61 2.148-13.009Z" fill="#FDFDFD"/><path d="M129.31 511.68c-7.94 2.714-16.161 3.93-24.289 5.802-14.2928 3.369-28.4924 7.393-43.2526 8.61-2.8026.187-7.0065 1.684-7.8472-1.404-.7474-2.714 3.6433-3.65 6.0722-4.586 13.0786-5.334 27.0915-7.861 40.5436-12.072 6.913-2.152 14.106-3.65 20.926-6.364 3.083 2.902 5.418 6.551 7.847 10.014Z" fill="#FCFDFD"/><path d="M616.863 333.871c18.03-5.615 35.78-12.353 54.651-14.599 3.176-.375 7.847-1.311 8.874 1.59 1.028 2.902-3.83 3.65-6.259 4.773-17.749 7.768-35.779 14.974-54.743 19.278-1.401-3.556-1.962-7.299-2.523-11.042Z" fill="#3DCBFB"/><path d="M444.786 635.117c.467-1.685-2.336-2.62-.934-4.586 7.754-2.152 15.507-4.304 23.261-6.457.187 9.826 3.083 19.372 4.391 29.011.747 5.334 1.775 10.575 1.121 16.19-8.968-11.698-18.217-23.115-27.839-34.158Z" fill="#FCFDFD"/><path d="M275.604 215.955c-5.138-1.31-10.556-1.497-15.414-3.931-1.214-.561-1.401.843-2.242 1.123.654-3.462-.654-6.363-2.522-9.171-2.616-4.117-5.886-7.58-9.249-11.043-3.363-3.462-7.38-5.989-12.144-9.077 2.522-.749 4.204-1.31 5.979-1.872 7.286 4.96 13.919 10.669 19.244 17.875 1.588 2.058 3.83 2.994 6.539 2.994 12.425.187 24.383-1.029 34.565-9.265 1.869-1.497 3.083-.655 4.298.749.093 2.527-1.402 4.305-2.896 6.083-5.512 6.177-11.958 10.669-20.179 12.072-2.616.468-4.11 2.246-5.979 3.463Z" fill="#B9C6F2"/><path d="M325.21 631.374c-1.402 6.083-5.512 10.575-9.249 15.16-8.034 9.92-16.161 19.84-24.195 29.76-.374-.187-.748-.375-1.215-.562.748-11.323 3.644-22.46 4.858-33.783 8.501-1.591 16.535-4.68 24.196-8.61 1.774-.842 3.456-1.965 5.605-1.965Z" fill="#FCFDFD"/><path d="M508.124 602.269c12.051 4.305 23.074 1.404 33.818-4.305 11.77-6.176 19.244-15.722 23.167-28.262-.467 15.254-8.314 26.203-20.458 34.532-13.92 9.546-28.587 9.452-44.561 3.276 2.989-1.966 5.512-3.556 8.034-5.241Z" fill="#FCFCFD"/><path d="M660.49 379.727c16.629 3.743 32.977 8.703 50.073 11.604-12.332 2.433-24.569 4.773-36.901 7.206-4.39-6.27-8.781-12.54-13.172-18.81Z" fill="#FBFDFD"/><path d="M157.99 301.303c-9.996-6.738-19.992-13.382-29.894-20.12.187-.562.467-1.123.654-1.591 12.985.749 25.41 4.211 37.928 7.58-2.99 4.679-5.792 9.359-8.688 14.131Z" fill="#FBFEFD"/><path d="M615.929 295.314c10.93-2.246 21.58-6.083 32.977-7.019-.093.749 0 1.217-.187 1.31-11.677 7.019-23.354 14.038-35.125 20.963-.841.562-1.869 1.31-2.896.281 1.681-5.241 3.456-10.388 5.231-15.535Z" fill="#F9FDFC"/><path d="M188.444 540.691c3.831-.374 6.913 1.029 9.436 3.93 7.847 9.078 15.601 18.156 24.382 26.297 3.083 2.902 6.259 5.615 9.248 8.423.561.561 2.336 1.029 1.028 2.527-16.815-11.324-31.389-25.174-44.094-41.177Z" fill="#F5F8FB"/><path d="M609.951 355.488c-2.336.468-3.364-.842-3.831-2.901-2.709-12.072-6.819-23.676-10.836-35.281-1.402-4.117.093-6.083 3.643-5.708-.467 2.246.467 4.211 1.215 6.27 4.484 11.604 8.781 23.209 8.968 35.936.093.561.654 1.123.841 1.684Z" fill="#F8FAFC"/><path d="M114.176 332.841c-8.407-4.866-17.5624-8.422-25.3161-14.88 9.6221 1.872 19.1511 3.65 28.7731 5.522-.747 3.275-1.869 6.364-3.457 9.358Z" fill="#49CCF7"/><path d="M159.671 535.169c-7.286 1.966-14.76 2.059-22.233 1.685 1.868-4.211 6.819-4.866 9.435-8.329 4.764 1.217 8.501 4.586 12.798 6.644Z" fill="#F6FCFC"/><path d="M139.493 484.541c-6.913.748-13.079 4.024-19.712 5.615.094-3.089 3.083-3.182 4.952-4.305 4.858-2.901 10.089-5.241 14.573-8.797-.28 2.527 4.017 4.866.187 7.487Z" fill="#F4FAFB"/><path d="M160.699 195.46c4.204 3.743 7.1 8.516 10.463 13.008-2.803.375-3.55-2.152-5.045-3.65-2.522-2.433-5.325-4.585-7.1-7.673 1.121.093 1.682-.562 1.682-1.685ZM153.132 190.875c2.336 1.216 4.204 2.713 4.951 5.334-2.148-1.31-4.017-2.901-4.951-5.334Z" fill="#68CFE9"/><path d="M575.572 153.16c1.775 4.118-2.802 4.96-3.923 7.581-6.072 5.521-12.145 10.949-18.871 15.722-1.401.935-2.616 2.152-4.484 1.871-.654-1.123 0-1.871.561-2.526 6.913-7.487 14.293-14.6 22.42-20.776 1.401-.842 2.896-1.217 4.297-1.872Z" fill="#F7FBFC"/><path d="M538.205 154.283c2.989-5.708 5.418-11.791 9.061-17.126.374.749 1.028 1.123 1.869 1.123-2.99 4.96-6.072 9.92-9.062 14.787-.374.561-.467 1.965-1.868 1.216Z" fill="#60CAE5"/><path d="M571.742 86.8093c-.093-.7487-.28-1.4973-1.027-1.9652 3.456-7.1124 8.22-13.2889 12.985-19.5591-3.363 7.5803-7.193 14.7863-11.958 21.5243Z" fill="#BCF7F3"/><path d="M380.327 534.234c-24.85-.188-42.132-12.915-54.463-33.504-8.782-14.692-13.079-30.789-13.92-47.914-.467-10.107 6.072-14.88 15.321-10.95 17.749 7.581 36.06 11.511 55.304 10.669 16.909-.749 33.164-4.492 48.858-10.949 4.204-1.779 8.595-3.089 12.705.467 2.429 2.153 4.204 4.68 4.11 8.049-.654 24.799-6.446 47.821-24.289 66.163-11.584 12.073-26.344 17.969-43.626 17.969Z" fill="#29229A"/><path d="M231.697 398.069c0-25.267 16.535-44.546 40.824-47.634 23.355-2.995 45.776 13.85 49.793 37.246 2.615 14.974-.187 28.731-8.595 41.364-1.401 2.153-2.429 2.34-4.764 1.217-20.366-10.107-41.011-9.546-61.376-.094-3.457 1.591-4.765.749-6.54-1.871-6.072-8.797-9.342-18.998-9.342-30.228ZM478.977 349.312c26.811.281 47.457 23.302 45.589 50.91-.654 10.013-3.737 19.184-9.155 27.607-1.495 2.339-2.896 2.994-5.606 1.684-20.458-9.732-41.104-9.358-61.563.094-2.335 1.029-3.549.842-5.044-1.123-20.646-27.327-9.155-70.937 26.998-78.049 2.896-.655 5.885-.842 8.781-1.123Z" fill="#28239A"/><path d="M444.225 336.585c-.654-.188-1.588-.188-2.148-.656-4.951-3.93-8.501-.935-12.705 1.966-9.529 6.644-20.272 10.855-31.669 13.008-4.111.749-6.073 2.059-6.446 6.551-.561 5.802-4.111 8.235-9.155 7.486-5.045-.748-6.166-4.585-6.259-8.516-.094-3.837-1.869-4.866-5.138-5.802-11.304-3.182-21.954-7.861-31.576-14.599-2.429-1.685-4.297-1.965-6.539-.094-1.401 1.217-3.083 2.059-4.671 2.995-3.643 2.246-6.913 1.404-9.622-1.497-2.709-2.808-3.363-6.645-.654-9.265 5.418-5.147 3.55-9.826.747-15.254-4.017-7.955-6.539-16.471-7.754-25.361-.56-4.492-2.429-5.99-6.819-6.177-6.82-.281-9.996-5.241-7.754-11.136 1.308-3.369 4.11-4.867 7.38-4.68 6.353.281 9.529-2.526 11.117-8.516 1.308-4.96 3.737-9.639 6.633-13.85 2.429-3.556 1.681-5.615-1.215-8.516-4.951-4.867-3.737-10.856 2.055-13.851 3.27-1.684 6.166-.468 8.688 1.31 3.831 2.808 6.913 2.247 10.837-.374 9.062-6.083 19.057-10.481 29.614-13.382 3.363-.936 4.951-2.714 5.138-6.083.093-1.872.56-3.65 1.027-5.522.841-3.462 2.896-5.24 6.633-5.334 3.924-.094 6.072 1.872 7.38 5.241.467 1.123.841 2.433.748 3.649-.561 5.709 2.709 7.113 7.66 7.861 10.556 1.591 20.365 5.522 29.614 10.763 2.896 1.591 5.325 2.058 8.127.187 3.644-2.433 6.913-1.03 9.622 1.684 2.803 2.808 3.083 5.99.561 9.265-1.308 1.685-1.308 3.369-.561 5.241 3.831 10.388 7.287 20.869 9.436 31.725.467 2.246 1.868 2.714 3.55 2.901 4.764.655 6.632 3.743 6.913 8.048.28 4.492-2.056 7.58-6.26 8.61-2.709.655-3.269 2.246-3.736 4.492-1.588 8.142-4.111 16.003-8.034 23.302-1.775 3.276-1.869 5.428 1.121 7.955 2.615 2.152 3.269 5.334 1.681 8.516-1.588 2.995-3.83 5.241-7.567 5.709Z" fill="#F5102C"/><path d="M452.073 549.956c2.615 3.556 6.352 6.27 8.314 10.855-8.408-.468-15.881-5.802-25.317-3.556 3.644 2.901 6.633 5.428 9.622 7.768 1.682 1.31 4.391 2.526 4.017 4.585-.373 1.778-3.363 1.498-5.231 1.872-11.304 2.714-22.047-.281-32.697-3.743-.56-.843-.747-1.779-.467-2.714 1.962-6.926 1.495-13.851-.186-20.776 1.868-1.778 3.269-.374 4.951.562 4.203 2.526 8.688 4.772 12.798 7.486 4.858 3.182 9.622 2.527 14.573.655 3.177-1.123 6.446-1.965 9.623-2.994Z" fill="#C7DFF9"/><path d="M410.127 544.341c4.111 5.615 3.177 11.885 1.962 18.061-.373 1.778-.841 3.557-1.308 5.335-4.951 9.452-11.677 16.845-22.794 18.81-11.771 2.152-21.486-1.778-28.866-10.949-6.259-7.674-8.875-16.658-7.941-26.578.374-1.123.28-2.527 1.775-2.995.467 1.965.841 3.931 1.308 5.896 1.588 3.837 2.896 7.861 4.764 11.604 6.166 12.541 16.255 18.062 29.054 15.91 10.089-1.778 18.683-12.541 19.804-24.987.187-2.153 0-4.399 1.402-6.27.187-1.311-.654-2.808.84-3.837Z" fill="#2E2499"/><path d="M409.287 548.178c.467 6.457-.654 12.633-3.644 18.436-9.248 17.968-32.042 19.839-44.187 3.649-4.11-5.427-6.539-11.604-7.193-18.436 5.045 7.019 8.781 14.88 14.76 21.338 6.259 6.738 15.788 5.802 21.954.374 6.632-5.896 11.023-13.289 15.133-20.963.841-1.591 1.215-3.556 3.177-4.398Z" fill="#C2D9F2"/><path d="M275.604 215.955c.374-2.152 1.308-3.837 3.644-4.211 11.303-1.685 19.524-7.768 25.316-17.407 2.99 2.901 2.429 6.27.654 9.359-5.231 8.984-13.452 13.663-23.542 15.254-2.522.468-4.857-.281-6.072-2.995Z" fill="#271D99"/><path d="M556.889 276.878c1.588.187 1.775 1.591 2.242 2.714 4.39 9.92 11.957 16.939 21.019 22.367 1.962 1.216 4.764 2.152 3.363 5.147-1.495 3.088-4.204 2.058-6.446.842-3.363-1.872-6.539-4.024-9.902-6.083-3.55-4.399-7.567-8.516-9.529-14.038-1.214-3.649-1.962-7.206-.747-10.949Z" fill="#261FA1"/><path d="M242.067 444.674c.093-3.837 3.176-6.177 6.819-5.709 4.858.655 13.359 8.61 14.387 13.57.467 2.246-.374 3.556-2.709 4.024-4.111.749-16.442-6.083-18.123-10.013-.281-.749-.281-1.498-.374-1.872Z" fill="#FC17AD"/><path d="M516.718 439.34c2.336.093 4.391.655 5.325 2.994.934 2.527-.187 4.586-1.868 6.364-3.924 4.024-8.968 6.083-14.2 7.674-1.494.468-3.083.281-4.297-1.03-1.308-1.497-.467-2.901.093-4.304 1.589-3.931 4.952-6.271 7.661-9.265 1.775-2.621 4.204-3.556 7.286-2.433Z" fill="#FB12AF"/><path d="M484.302 449.072c-3.83-.093-5.698-2.526-4.671-6.176 1.495-4.96 11.864-10.201 16.722-8.423 1.588.655 2.055 1.778 1.775 3.276-.747 4.024-9.715 11.417-13.826 11.323Z" fill="#FC12AD"/><path d="M271.587 434.66c4.017.375 8.501 1.685 11.491 5.709 1.588 2.059 2.335 4.492.467 6.832-1.869 2.339-4.297 2.433-6.726 1.31-4.484-2.059-7.941-5.428-10.463-9.639-1.682-2.995-.094-4.399 5.231-4.212Z" fill="#FC10B0"/><path d="M516.718 439.34c-2.428.748-4.951 1.59-7.38 2.339-2.615-.749-3.269-2.714-.747-3.556 6.726-2.34 11.117-7.3 15.694-12.353.281 6.083-4.857 9.171-7.567 13.57Z" fill="#37C7EC"/><path d="M454.034 436.813c.374 1.591-.28 1.965-1.121 1.872-1.868-.188-3.83-.281-4.484-2.434-.373-1.123.841-1.403 1.869-1.403 1.868-.094 3.176.655 3.736 1.965Z" fill="#2B2C8C"/><path d="M310.263 436.906c-.374 1.872-1.962 2.246-3.457 2.527-.84.187-2.148.375-2.148-.936-.094-1.965 1.401-2.62 2.989-2.807 1.028 0 2.242-.281 2.616 1.216Z" fill="#1B2084"/><path d="M426.102 486.412c-7.1 17.781-19.244 29.853-38.582 32.567-21.019 2.901-36.34-6.644-47.27-24.051-4.017-6.363-7.1-13.101-8.408-20.588 2.149-.936 3.924.093 5.699 1.029 14.76 7.206 30.455 9.359 46.616 9.639 12.425.188 24.849 0 37.274.094 1.588-.094 3.737-1.217 4.671 1.31Z" fill="#F94486"/><path d="M426.102 486.412c-10.556 0-21.019-.187-31.575 0-21.767.468-42.973-1.778-62.685-12.166-1.868-3.649-2.055-7.767-3.082-11.698-.934-3.462.28-3.837 3.176-2.807 7.287 2.62 14.76 4.679 22.42 5.989 24.756 4.118 48.859 1.123 72.587-6.457 5.698-1.872 5.698-1.778 4.951 4.118-1.028 8.048-2.429 15.815-5.792 23.021Z" fill="#D80F99"/><path d="M266.729 362.601c8.875-.094 15.975 7.019 16.068 15.909.094 8.984-7.099 16.19-16.348 16.284-9.155.093-16.161-6.645-16.255-15.629-.093-9.265 7.1-16.471 16.535-16.564Z" fill="#FDFDFD"/><path d="M307.74 386.465c0 3.93-2.896 6.551-6.819 6.457-3.644-.094-6.446-2.995-6.353-6.551.094-3.369 3.27-6.364 6.726-6.364 3.644 0 6.54 2.902 6.446 6.458Z" fill="#F0F5FB"/><path d="M484.115 378.229c.094 9.172-6.819 16.19-16.161 16.284-8.875.187-16.255-6.925-16.442-15.629-.187-9.264 7.474-16.938 16.815-16.938 8.595.093 15.695 7.393 15.788 16.283Z" fill="#FDFDFD"/><path d="M509.432 386.184c0 3.65-2.896 6.551-6.54 6.551-3.549 0-6.632-3.088-6.632-6.551s3.176-6.551 6.632-6.457c3.831.093 6.633 2.807 6.54 6.457Z" fill="#EFF5FB"/><path d="M383.597 358.951c-1.682-.187-2.429-1.497-2.336-2.901.467-7.861-4.11-10.388-10.93-11.979-10.183-2.339-19.524-7.299-28.026-13.382-4.297-3.182-7.753-3.089-11.584.28-1.307 1.123-2.802 1.966-4.203 2.902-1.121.655-2.429.748-3.457-.188-1.121-1.029-.747-2.246-.187-3.462.094-.187.187-.281.281-.375 6.726-6.644 4.11-13.195.373-20.214-4.017-7.58-6.072-16.002-7.193-24.519-.747-5.521-3.643-7.393-8.408-8.235-2.522-.468-6.633.468-6.352-3.556.28-3.837 4.204-2.995 6.819-2.995 5.699-.093 9.062-2.339 10.65-8.142 1.775-6.457 4.951-12.446 8.408-18.155 2.802-4.492 2.055-7.767-1.495-10.949-.654-.655-1.308-1.31-1.962-2.059-1.027-1.217-1.401-2.34-.187-3.743 1.215-1.404 2.616-2.059 4.018-.749 6.726 6.176 12.518 3.462 19.15-.749 8.128-5.24 17.096-8.984 26.438-11.511 4.671-1.31 7.006-3.93 7.94-8.516.561-2.901.094-7.861 3.364-7.767 3.549.093 2.055 5.147 2.802 7.954.841 3.182 1.588 5.99 5.418 6.645 13.173 2.152 25.317 7.206 37.181 13.195 2.99 1.498 5.418 1.872 8.034-.468 1.028-.936 2.523-2.246 4.111-.936 1.681 1.311 1.401 3.182.373 4.68-2.522 3.556-1.681 7.112-.28 10.668 3.643 9.452 6.726 19.091 8.595 29.011.653 3.65 2.615 5.428 5.978 6.083 1.962.375 4.111.655 4.485 3.369.373 2.808-1.869 3.369-3.644 4.118-4.017 1.591-5.979 4.211-6.633 8.703-1.214 8.236-4.484 15.909-8.314 23.209-2.335 4.398-2.055 7.861 1.962 10.949 1.495 1.123 3.176 2.527 1.401 4.586-1.588 1.965-3.83 1.778-5.325.093-3.736-4.024-6.726-2.246-10.369.375-10.276 7.58-21.58 13.008-34.191 15.254-5.979 1.029-9.249 3.463-9.623 9.639-.093 1.591-.747 3.369-3.082 3.837Z" fill="#F3F8FB"/><path d="M408.352 329.191c-4.577 1.404-9.248.936-13.919.562-8.968-.749-17.936-1.778-26.905-2.433-3.736-.281-6.913-1.404-9.622-4.024-8.127-7.955-16.348-15.722-24.662-23.584-2.71-2.62-3.644-5.334-2.71-9.171 2.99-12.353 5.606-24.799 8.221-37.34.561-2.807 1.869-4.866 4.298-6.27 10.743-6.551 21.579-13.102 32.229-19.652 2.709-1.685 5.418-1.872 8.408-.749 12.051 4.586 24.102 9.078 36.153 13.57 2.616.935 4.671 2.433 5.979 4.866 1.308.842 1.681 2.246 1.962 3.556 2.429 9.92 5.138 19.84 7.286 29.853 1.308 6.177.374 11.698-2.896 17.407-5.792 10.013-11.864 19.653-18.684 28.917-1.307 2.059-2.802 3.837-5.138 4.492Z" fill="#3521A1"/><path d="M408.352 329.191c10.37-12.072 18.404-25.642 25.597-39.773 1.588-3.182.841-6.738 0-10.013-2.709-11.417-5.511-22.835-8.221-34.345 3.27-.188 4.111 2.62 5.232 4.679 5.885 10.388 11.49 20.963 17.189 31.444 2.242 4.024.841 7.393-2.055 10.481-8.408 8.984-16.722 17.968-25.037 26.952-2.428 2.621-5.231 4.867-7.193 7.955-1.121 2.153-3.083 2.995-5.512 2.62Z" fill="#D6DEFB"/><path d="M401.253 326.478c-11.865-1.311-22.608-1.217-33.257-2.621-3.457-.468-6.26-1.778-8.688-4.024-7.567-7.206-15.041-14.412-22.608-21.618-2.709-2.62-3.456-5.334-2.429-9.265 2.896-10.855 5.232-21.805 7.661-32.754.654-2.807 1.775-4.866 4.297-6.364 9.809-5.989 19.711-11.885 29.427-18.061 3.176-1.966 6.072-2.246 9.622-.843 9.529 3.744 19.151 7.394 28.866 10.669 4.858 1.684 7.941 4.305 9.062 9.452 2.429 10.481 5.138 20.869 7.847 31.257.654 2.527-.093 4.679-1.121 6.738-5.885 11.792-13.078 22.647-20.832 33.129-2.242 3.181-4.951 5.147-7.847 4.305Z" fill="#F80FB6"/><path d="M351.46 274.445c2.429 17.687 13.079 30.602 28.4 34.532 17.189 4.399 32.136-4.585 36.713-21.992 1.402-5.334 1.215-10.762 1.215-16.284v-4.772c5.044 4.024 7.1 12.727 5.138 20.682-3.27 13.195-10.93 23.583-20.926 32.38-1.028.842-2.429 1.684-3.737 1.778-12.518.281-25.223.187-35.779-7.674-8.408-6.27-15.975-13.476-18.684-24.332-1.308-5.241-1.401-10.481-.187-15.722.561-2.34 1.588-3.93 4.391-3.93 2.989 0 2.148 2.433 2.709 4.024.093.468.467.842.747 1.31Z" fill="#6213FA"/><path d="M351.46 274.445c.094-1.123.094-2.246.187-3.369.374 0 .654-.094.934 0 1.589.187 1.962 3.93 3.831 1.965 1.775-1.872-1.028-2.807-2.149-3.743-2.522-2.059-2.242-4.679-1.588-7.206 1.495-5.615 5.044-10.107 10.369-11.885 6.259-2.059 10.65-6.926 16.349-9.639 2.335-1.03 3.363-1.03 3.176 1.403-.654 5.522 2.802 7.206 7.193 8.423 2.616.748 5.325 1.778 7.847 3.65-2.055 2.339-4.857 2.714-7.38 3.369-4.671 1.31-6.913 3.743-6.352 8.89.28 2.433.56 5.241-.841 7.955-2.896-2.246-4.578-5.054-6.072-7.861-1.495-2.901-2.709-2.527-4.858-.936-4.297 3.275-8.875 6.364-13.079 9.733-2.896 2.526-5.418 2.807-7.567-.749Z" fill="#FCFBFD"/></svg>